<svg width="568" height="223" viewBox="0 0 568 223" fill="none" xmlns="http://www.w3.org/2000/svg">
<path d="M479.408 98.6553L478.808 97.0043L477.606 96.404H476.405L475.354 97.0043L474.754 98.055L474.153 100.456L473.553 102.257L472.352 103.308L471.15 103.908H469.499L468.298 103.308L467.697 102.858L467.097 101.057V98.6553L467.697 97.0043L468.298 96.404L469.499 95.8037H471.15L472.352 96.404L473.553 97.6046L474.153 99.2556L474.754 101.657L475.354 102.858L476.405 103.308H477.606L478.808 102.858L479.408 101.057V98.6553Z" stroke="#6C6E74" stroke-width="0.12" stroke-linecap="round" stroke-linejoin="round"/>
<path d="M476.405 108.111H477.006L478.207 108.711L478.808 109.161L479.408 110.362V112.763L478.808 113.964L478.207 114.414L477.006 115.014H475.955L474.754 114.414L472.952 113.364L467.097 107.51V115.615" stroke="#6C6E74" stroke-width="0.12" stroke-linecap="round" stroke-linejoin="round"/>
<path d="M475.354 126.721L473.553 126.121L472.352 125.07L471.751 123.269V122.669L472.352 120.868L473.553 119.817L475.354 119.217H475.955L477.606 119.817L478.808 120.868L479.408 122.669V123.269L478.808 125.07L477.606 126.121L475.354 126.721ZM475.354 126.721H472.352L469.499 126.121L467.697 125.07L467.097 123.269V122.068L467.697 120.267L468.898 119.817" stroke="#6C6E74" stroke-width="0.12" stroke-linecap="round" stroke-linejoin="round"/>
<path d="M305.696 35.0195H474.603M305.095 180.301H474.603" stroke="#6C6E74" stroke-width="0.12" stroke-linecap="round" stroke-linejoin="round"/>
<path d="M464.094 180.301V35.0195" stroke="#6C6E74" stroke-width="0.12" stroke-linecap="round" stroke-linejoin="round"/>
<path fill-rule="evenodd" clip-rule="evenodd" d="M464.093 180.301L466.646 162.741H461.391" fill="#6C6E74"/>
<path fill-rule="evenodd" clip-rule="evenodd" d="M464.093 35.0195L461.391 52.4293H466.646" fill="#6C6E74"/>
<path d="M408.692 151.785H409.292L410.493 152.385L411.094 152.986L411.544 154.186V156.438L411.094 157.638L410.493 158.239L409.292 158.839H408.091L406.89 158.239L405.238 157.038L399.383 151.185V159.439" stroke="#6C6E74" stroke-width="0.12" stroke-linecap="round" stroke-linejoin="round"/>
<path d="M409.292 162.892L409.893 164.092L411.544 165.893H399.383" stroke="#6C6E74" stroke-width="0.12" stroke-linecap="round" stroke-linejoin="round"/>
<path d="M408.692 172.797H409.292L410.493 173.397L411.094 173.998L411.544 175.198V177.6L411.094 178.65L410.493 179.251L409.292 179.851H408.091L406.89 179.251L405.238 178.2L399.383 172.347V180.451" stroke="#6C6E74" stroke-width="0.12" stroke-linecap="round" stroke-linejoin="round"/>
<path d="M350.738 143.23H406.74M305.095 180.301H406.74" stroke="#6C6E74" stroke-width="0.12" stroke-linecap="round" stroke-linejoin="round"/>
<path d="M396.23 180.301V204.915V161.841" stroke="#6C6E74" stroke-width="0.12" stroke-linecap="round" stroke-linejoin="round"/>
<path d="M396.23 143.23V118.767V161.841" stroke="#6C6E74" stroke-width="0.12" stroke-linecap="round" stroke-linejoin="round"/>
<path fill-rule="evenodd" clip-rule="evenodd" d="M396.23 180.301L393.678 197.861H398.933" fill="#6C6E74"/>
<path d="M396.23 145.932L397.281 145.632L398.182 145.181L398.632 144.281L398.933 143.23L398.632 142.18L398.182 141.429L397.281 140.829L396.23 140.679L395.329 140.829L394.428 141.429L393.828 142.18L393.678 143.23L393.828 144.281L394.428 145.181L395.329 145.632L396.23 145.932Z" stroke="#6C6E74" stroke-width="0.12" stroke-linecap="round" stroke-linejoin="round"/>
<path d="M396.23 125.67V143.23" stroke="#6C6E74" stroke-width="0.12" stroke-linecap="round" stroke-linejoin="round"/>
<path d="M409.292 119.967L409.893 121.168L411.544 122.969H399.383" stroke="#6C6E74" stroke-width="0.12" stroke-linecap="round" stroke-linejoin="round"/>
<path d="M411.544 136.327V130.473L406.289 129.873L406.89 130.473L407.49 132.274V134.075L406.89 135.726L405.839 136.927L404.037 137.527H402.836L401.034 136.927L399.983 135.726L399.383 134.075V132.274L399.983 130.473L400.434 129.873L401.635 129.423" stroke="#6C6E74" stroke-width="0.12" stroke-linecap="round" stroke-linejoin="round"/>
<path d="M411.544 144.581L411.094 142.78L409.292 141.579L406.289 140.979H404.638L401.635 141.579L399.983 142.78L399.383 144.581V145.782L399.983 147.433L401.635 148.633L404.638 149.234H406.289L409.292 148.633L411.094 147.433L411.544 145.782V144.581Z" stroke="#6C6E74" stroke-width="0.12" stroke-linecap="round" stroke-linejoin="round"/>
<path d="M343.681 116.966H406.74M350.737 143.231H406.74" stroke="#6C6E74" stroke-width="0.12" stroke-linecap="round" stroke-linejoin="round"/>
<path d="M396.23 143.23V167.844V130.023" stroke="#6C6E74" stroke-width="0.12" stroke-linecap="round" stroke-linejoin="round"/>
<path d="M396.23 116.965V92.3516V130.023" stroke="#6C6E74" stroke-width="0.12" stroke-linecap="round" stroke-linejoin="round"/>
<path d="M396.23 140.679L395.329 140.829L394.428 141.429L393.828 142.18L393.678 143.23L393.828 144.281L394.428 145.181L395.329 145.632L396.23 145.932L397.281 145.632L398.182 145.181L398.632 144.281L398.933 143.23L398.632 142.18L398.182 141.429L397.281 140.829L396.23 140.679Z" stroke="#6C6E74" stroke-width="0.12" stroke-linecap="round" stroke-linejoin="round"/>
<path d="M396.23 160.79V143.23" stroke="#6C6E74" stroke-width="0.12" stroke-linecap="round" stroke-linejoin="round"/>
<path fill-rule="evenodd" clip-rule="evenodd" d="M396.23 116.966L398.933 99.4058H393.678" fill="#6C6E74"/>
<path d="M431.513 136.026L432.113 137.227L433.765 139.028H421.604" stroke="#6C6E74" stroke-width="0.12" stroke-linecap="round" stroke-linejoin="round"/>
<path d="M433.765 148.933L433.314 147.132L431.513 145.932L428.51 145.481H426.858L423.856 145.932L422.204 147.132L421.604 148.933V150.134L422.204 151.785L423.856 152.986L426.858 153.586H428.51L431.513 152.986L433.314 151.785L433.765 150.134V148.933Z" stroke="#6C6E74" stroke-width="0.12" stroke-linecap="round" stroke-linejoin="round"/>
<path d="M432.113 164.092L433.314 163.492L433.765 161.841V160.64L433.314 158.839L431.513 157.638L428.51 157.038H425.657L423.255 157.638L422.204 158.839L421.604 160.64V161.24L422.204 162.891L423.255 164.092L425.057 164.692H425.657L427.459 164.092L428.51 162.891L429.111 161.24V160.64L428.51 158.839L427.459 157.638L425.657 157.038" stroke="#6C6E74" stroke-width="0.12" stroke-linecap="round" stroke-linejoin="round"/>
<path d="M343.681 98.3555H428.96M343.681 116.966H428.96" stroke="#6C6E74" stroke-width="0.12" stroke-linecap="round" stroke-linejoin="round"/>
<path d="M418.451 116.965V157.188V107.66" stroke="#6C6E74" stroke-width="0.12" stroke-linecap="round" stroke-linejoin="round"/>
<path d="M418.451 98.355V73.7412V107.66" stroke="#6C6E74" stroke-width="0.12" stroke-linecap="round" stroke-linejoin="round"/>
<path fill-rule="evenodd" clip-rule="evenodd" d="M418.451 116.966L415.898 134.526H421.153" fill="#6C6E74"/>
<path d="M418.451 101.057L419.502 100.757L420.403 100.156L420.853 99.4059L421.153 98.3554L420.853 97.3047L420.403 96.5544L419.502 95.954L418.451 95.6538L417.55 95.954L416.649 96.5544L416.049 97.3047L415.898 98.3554L416.049 99.4059L416.649 100.156L417.55 100.757L418.451 101.057Z" stroke="#6C6E74" stroke-width="0.12" stroke-linecap="round" stroke-linejoin="round"/>
<path d="M418.451 80.7954V98.3552" stroke="#6C6E74" stroke-width="0.12" stroke-linecap="round" stroke-linejoin="round"/>
<path d="M431.513 75.0923L432.113 76.293L433.765 78.094H421.604" stroke="#6C6E74" stroke-width="0.12" stroke-linecap="round" stroke-linejoin="round"/>
<path d="M433.765 91.4514V85.5982L428.51 84.9978L429.111 85.5982L429.711 87.3992V89.2002L429.111 90.8511L428.06 92.0518L426.258 92.6521H425.057L423.255 92.0518L422.204 90.8511L421.604 89.2002V87.3992L422.204 85.5982L422.654 84.9978L423.856 84.3975" stroke="#6C6E74" stroke-width="0.12" stroke-linecap="round" stroke-linejoin="round"/>
<path d="M433.765 99.706L433.314 97.905L431.513 96.7043L428.51 96.104H426.858L423.856 96.7043L422.204 97.905L421.604 99.706V100.757L422.204 102.558L423.856 103.758L426.858 104.359H428.51L431.513 103.758L433.314 102.558L433.765 100.757V99.706Z" stroke="#6C6E74" stroke-width="0.12" stroke-linecap="round" stroke-linejoin="round"/>
<path d="M343.681 98.355H428.96M347.284 72.0903H428.96" stroke="#6C6E74" stroke-width="0.12" stroke-linecap="round" stroke-linejoin="round"/>
<path d="M418.451 72.0903V47.4766V85.1477" stroke="#6C6E74" stroke-width="0.12" stroke-linecap="round" stroke-linejoin="round"/>
<path d="M418.451 98.3553V122.969V85.1479" stroke="#6C6E74" stroke-width="0.12" stroke-linecap="round" stroke-linejoin="round"/>
<path fill-rule="evenodd" clip-rule="evenodd" d="M418.451 72.0906L421.153 54.5308H415.898" fill="#6C6E74"/>
<path d="M418.451 95.6538L417.55 95.954L416.649 96.5544L416.049 97.3047L415.898 98.3554L416.049 99.4059L416.649 100.156L417.55 100.757L418.451 101.057L419.502 100.757L420.403 100.156L420.853 99.4059L421.153 98.3554L420.853 97.3047L420.403 96.5544L419.502 95.954L418.451 95.6538Z" stroke="#6C6E74" stroke-width="0.12" stroke-linecap="round" stroke-linejoin="round"/>
<path d="M418.451 115.915V98.3555" stroke="#6C6E74" stroke-width="0.12" stroke-linecap="round" stroke-linejoin="round"/>
<path d="M23.8819 148.183H24.4825L25.6836 148.784L26.134 149.384L26.7346 150.585V152.986L26.134 154.036L25.6836 154.637L24.4825 155.237H23.2814L22.0803 154.637L20.2786 153.436L14.5732 147.733V155.838" stroke="#6C6E74" stroke-width="0.12" stroke-linecap="round" stroke-linejoin="round"/>
<path d="M26.7345 165.142L18.627 159.289V168.144" stroke="#6C6E74" stroke-width="0.12" stroke-linecap="round" stroke-linejoin="round"/>
<path d="M26.7346 165.143H14.5732" stroke="#6C6E74" stroke-width="0.12" stroke-linecap="round" stroke-linejoin="round"/>
<path d="M26.7346 172.197V178.65L22.0803 175.198V176.849L21.4797 178.05L20.8791 178.65L19.2276 179.251H18.0265L16.2248 178.65L15.0237 177.45L14.5732 175.649V173.998L15.0237 172.197L15.6242 171.596L16.8253 170.996" stroke="#6C6E74" stroke-width="0.12" stroke-linecap="round" stroke-linejoin="round"/>
<path d="M36.4933 137.827H0.910156M74.7292 180.351H0.910156" stroke="#6C6E74" stroke-width="0.12" stroke-linecap="round" stroke-linejoin="round"/>
<path d="M11.4199 180.301V204.915V159.139" stroke="#6C6E74" stroke-width="0.12" stroke-linecap="round" stroke-linejoin="round"/>
<path d="M11.4199 137.827V113.213V159.139" stroke="#6C6E74" stroke-width="0.12" stroke-linecap="round" stroke-linejoin="round"/>
<path fill-rule="evenodd" clip-rule="evenodd" d="M11.4206 180.301L8.86816 197.861H14.1231" fill="#6C6E74"/>
<path fill-rule="evenodd" clip-rule="evenodd" d="M11.4206 137.827L14.1231 120.268H8.86816" fill="#6C6E74"/>
<path d="M510.187 97.755L509.586 95.9539L508.385 95.3536H507.184L505.983 95.9539L505.382 97.1546L504.932 99.556L504.331 101.207L503.13 102.408L501.929 103.008H500.127L499.076 102.408L498.476 101.807L497.875 100.156V97.755L498.476 95.9539L499.076 95.3536L500.127 94.9033H501.929L503.13 95.3536L504.331 96.5543L504.932 98.3553L505.382 100.607L505.983 101.807L507.184 102.408H508.385L509.586 101.807L510.187 100.156V97.755Z" stroke="#6C6E74" stroke-width="0.12" stroke-linecap="round" stroke-linejoin="round"/>
<path d="M510.186 112.313L501.929 106.46V115.315" stroke="#6C6E74" stroke-width="0.12" stroke-linecap="round" stroke-linejoin="round"/>
<path d="M510.187 112.313H497.875" stroke="#6C6E74" stroke-width="0.12" stroke-linecap="round" stroke-linejoin="round"/>
<path d="M510.187 125.22V119.367L504.932 118.766L505.382 119.367L505.983 121.168V122.819L505.382 124.62L504.331 125.82L502.529 126.421H501.328L499.527 125.82L498.476 124.62L497.875 122.819V121.168L498.476 119.367L499.076 118.766L500.127 118.166" stroke="#6C6E74" stroke-width="0.12" stroke-linecap="round" stroke-linejoin="round"/>
<path d="M310.35 32.168H505.232M288.88 180.301H505.232" stroke="#6C6E74" stroke-width="0.12" stroke-linecap="round" stroke-linejoin="round"/>
<path d="M494.722 180.301V32.168" stroke="#6C6E74" stroke-width="0.12" stroke-linecap="round" stroke-linejoin="round"/>
<path fill-rule="evenodd" clip-rule="evenodd" d="M494.722 180.301L497.425 162.741H492.17" fill="#6C6E74"/>
<path fill-rule="evenodd" clip-rule="evenodd" d="M494.722 32.168L492.17 49.7278H497.425" fill="#6C6E74"/>
<path d="M567.69 115.165V102.257H543.067V112.763L544.268 116.215L545.47 117.416L547.722 118.617H551.325L553.577 117.416L554.778 116.215L555.979 112.763V102.257" stroke="#6C6E74" stroke-width="0.12" stroke-linecap="round" stroke-linejoin="round"/>
<path d="M371.457 164.392L370.256 163.342L369.655 162.141V160.34L370.256 159.139L370.856 158.689L371.457 158.089L373.109 157.488H374.31L376.111 158.089L377.312 159.139L377.913 160.34V162.141L377.312 163.342L376.111 164.392" stroke="#6C6E74" stroke-width="0.12" stroke-linecap="round" stroke-linejoin="round"/>
<path d="M377.913 164.392H369.655" stroke="#6C6E74" stroke-width="0.12" stroke-linecap="round" stroke-linejoin="round"/>
<path d="M379.565 166.793L380.165 167.994L381.967 169.795H369.655" stroke="#6C6E74" stroke-width="0.12" stroke-linecap="round" stroke-linejoin="round"/>
<path d="M334.973 148.183L366.652 155.687V167.994" stroke="#6C6E74" stroke-width="0.12" stroke-linecap="round" stroke-linejoin="round"/>
<path d="M378.063 125.971H369.955" stroke="#6C6E74" stroke-width="0.12" stroke-linecap="round" stroke-linejoin="round"/>
<path d="M374.609 128.372L369.955 132.424" stroke="#6C6E74" stroke-width="0.12" stroke-linecap="round" stroke-linejoin="round"/>
<path d="M378.063 131.824L372.208 125.971" stroke="#6C6E74" stroke-width="0.12" stroke-linecap="round" stroke-linejoin="round"/>
<path d="M379.864 133.024L380.465 134.225L382.116 135.876H369.955" stroke="#6C6E74" stroke-width="0.12" stroke-linecap="round" stroke-linejoin="round"/>
<path d="M323.111 118.166L366.802 123.569V135.876" stroke="#6C6E74" stroke-width="0.12" stroke-linecap="round" stroke-linejoin="round"/>
<path d="M378.663 82.2959H372.808L371.156 82.8963L370.556 84.0969V85.8979L371.156 86.9485L372.808 88.7496" stroke="#6C6E74" stroke-width="0.12" stroke-linecap="round" stroke-linejoin="round"/>
<path d="M378.663 88.75H370.556" stroke="#6C6E74" stroke-width="0.12" stroke-linecap="round" stroke-linejoin="round"/>
<path d="M380.465 91.1514L381.066 92.202L382.717 94.003H370.556" stroke="#6C6E74" stroke-width="0.12" stroke-linecap="round" stroke-linejoin="round"/>
<path d="M323.712 99.7059L367.403 92.2017" stroke="#6C6E74" stroke-width="0.12" stroke-linecap="round" stroke-linejoin="round"/>
<path d="M383.468 56.3318L382.867 55.1312L382.267 52.1294L381.666 51.0789L380.465 50.4785H373.408L372.357 51.0789L371.757 51.5291L371.156 52.7298V54.5309L371.757 55.7315L372.808 56.9322L374.609 57.3824H375.811L377.612 56.9322L378.063 56.3318L378.663 55.7315L379.264 54.5309V52.7298L378.663 51.5291L377.612 50.4785" stroke="#6C6E74" stroke-width="0.12" stroke-linecap="round" stroke-linejoin="round"/>
<path d="M381.066 59.1831L381.666 60.3838L383.468 62.1848H371.156" stroke="#6C6E74" stroke-width="0.12" stroke-linecap="round" stroke-linejoin="round"/>
<path d="M335.724 67.2876L368.004 60.3838" stroke="#6C6E74" stroke-width="0.12" stroke-linecap="round" stroke-linejoin="round"/>
<path d="M342.63 0.950684L343.831 1.551L344.281 3.35201V5.00294L343.831 6.80395L342.63 7.40427L341.429 6.80395L340.828 5.60325L340.228 2.7517L339.627 1.551L338.576 0.950684H337.976L336.774 1.551L336.174 3.35201V5.00294L336.774 6.80395L337.976 7.40427" stroke="#6C6E74" stroke-width="0.12" stroke-linecap="round" stroke-linejoin="round"/>
<path d="M346.083 9.05518L346.684 10.2559L348.485 12.0569H336.174" stroke="#6C6E74" stroke-width="0.12" stroke-linecap="round" stroke-linejoin="round"/>
<path d="M302.393 33.9692L333.021 11.4565" stroke="#6C6E74" stroke-width="0.12" stroke-linecap="round" stroke-linejoin="round"/>
<path d="M316.655 208.667L319.508 210.918" stroke="#6C6E74" stroke-width="0.12" stroke-linecap="round" stroke-linejoin="round"/>
<path d="M316.655 214.52H324.763V210.918L324.162 209.868L323.562 209.267L322.361 208.667H321.91L320.709 209.267L320.109 209.868L319.508 210.918V214.52" stroke="#6C6E74" stroke-width="0.12" stroke-linecap="round" stroke-linejoin="round"/>
<path d="M299.99 178.65L313.503 206.866V213.92" stroke="#6C6E74" stroke-width="0.12" stroke-linecap="round" stroke-linejoin="round"/>
<path d="M133.185 211.819L134.386 212.419L134.986 214.22V215.871L134.386 217.672L133.185 218.273L131.983 217.672L131.533 216.471L130.932 213.62L130.332 212.419L129.131 211.819H128.53L127.329 212.419L126.729 214.22V215.871L127.329 217.672L128.53 218.273" stroke="#6C6E74" stroke-width="0.12" stroke-linecap="round" stroke-linejoin="round"/>
<path d="M136.788 219.923L137.388 221.124L139.04 222.925H126.729" stroke="#6C6E74" stroke-width="0.12" stroke-linecap="round" stroke-linejoin="round"/>
<path d="M100.904 182.402L123.726 210.018V222.325" stroke="#6C6E74" stroke-width="0.12" stroke-linecap="round" stroke-linejoin="round"/>
<path d="M22.9814 82.4463L27.7859 86.4986" stroke="#6C6E74" stroke-width="0.12" stroke-linecap="round" stroke-linejoin="round"/>
<path d="M31.2383 93.5527L25.9834 88.2998L31.2383 83.0469" stroke="#6C6E74" stroke-width="0.12" stroke-linecap="round" stroke-linejoin="round"/>
<path d="M31.2392 88.2998H22.9814" stroke="#6C6E74" stroke-width="0.12" stroke-linecap="round" stroke-linejoin="round"/>
<path d="M27.7859 89.9502L22.9814 94.1526" stroke="#6C6E74" stroke-width="0.12" stroke-linecap="round" stroke-linejoin="round"/>
<path d="M33.0408 94.7529L33.4913 95.8036L35.293 97.6045H22.9814" stroke="#6C6E74" stroke-width="0.12" stroke-linecap="round" stroke-linejoin="round"/>
<path d="M45.2021 130.323L19.9785 95.9541" stroke="#6C6E74" stroke-width="0.12" stroke-linecap="round" stroke-linejoin="round"/>
<path d="M77.1818 1.25098H69.0742" stroke="#6C6E74" stroke-width="0.12" stroke-linecap="round" stroke-linejoin="round"/>
<path d="M73.128 1.25098V4.25269H73.7286L75.5303 4.853L76.7314 5.90362L77.1818 7.10425V8.30495L76.7314 9.50565L75.5303 10.7063L73.7286 11.1565H72.5274L70.8759 10.7063L69.6748 9.50565L69.0742 8.30495V7.10425L69.6748 5.90362L70.8759 4.853L72.5274 4.25269H73.128" stroke="#6C6E74" stroke-width="0.12" stroke-linecap="round" stroke-linejoin="round"/>
<path d="M81.6856 38.1713L65.9209 6.80371" stroke="#6C6E74" stroke-width="0.12" stroke-linecap="round" stroke-linejoin="round"/>
<path d="M338.876 48.6775L331.519 41.4735M57.8132 29.3164L54.0597 35.7702M34.041 139.028L34.7918 151.335M343.831 57.0822L338.826 48.6775" stroke="#6C6E74" stroke-width="0.12" stroke-linecap="round" stroke-linejoin="round"/>
<path d="M336.774 65.7871L336.925 66.0873V66.5375L336.774 66.6876" stroke="#6C6E74" stroke-width="0.12" stroke-linecap="round" stroke-linejoin="round"/>
<path d="M45.9523 125.07V150.585M43.7001 125.07V150.585M43.0996 130.023V145.469" stroke="#6C6E74" stroke-width="0.12" stroke-linecap="round" stroke-linejoin="round"/>
<path d="M50.7568 53.0298L49.8559 65.3366L48.9551 76.8931" stroke="#6C6E74" stroke-width="0.12" stroke-linecap="round" stroke-linejoin="round"/>
<path d="M47.3035 87.9995L43.55 100.507M39.196 113.264L35.5925 126.471M54.0597 35.8203L51.9579 44.0748L50.7067 53.0797M48.9549 76.9432L47.3035 88.0496M35.5424 126.471L34.041 139.078" stroke="#6C6E74" stroke-width="0.12" stroke-linecap="round" stroke-linejoin="round"/>
<path d="M311.4 27.0654L317.256 30.8175L323.111 34.8698L331.519 41.4735" stroke="#6C6E74" stroke-width="0.12" stroke-linecap="round" stroke-linejoin="round"/>
<path d="M311.401 27.0655L305.395 24.2139M74.9295 35.4702L75.38 35.0198M43.5503 100.444L39.1963 113.201M60.4662 142.317V166.931M60.4662 48.365V133.312M53.1091 142.317V133.312M51.6078 141.867V133.763M51.3075 134.363V141.267M51.0073 134.363V141.267M50.707 141.867V133.763M305.795 39.96L305.645 39.3597M306.096 39.96L305.946 39.3597M329.718 76.1305L329.418 75.5302M329.117 68.476L328.817 68.026M336.774 63.8235L337.375 64.2739" stroke="#6C6E74" stroke-width="0.12" stroke-linecap="round" stroke-linejoin="round"/>
<path d="M308.398 30.6672H308.248L308.098 30.5171H307.498L307.347 30.6672H307.197" stroke="#6C6E74" stroke-width="0.12" stroke-linecap="round" stroke-linejoin="round"/>
<path d="M304.644 30.6672H304.494L304.344 30.5171H303.744L303.593 30.6672H303.443" stroke="#6C6E74" stroke-width="0.12" stroke-linecap="round" stroke-linejoin="round"/>
<path d="M294.585 43.2745L294.885 43.5747M304.494 43.2745L304.945 43.5747M298.338 30.6673L297.888 30.3672M308.398 30.6673L307.797 30.3672" stroke="#6C6E74" stroke-width="0.12" stroke-linecap="round" stroke-linejoin="round"/>
<path d="M336.774 77.3433L336.925 77.4933V78.0937L336.774 78.3938" stroke="#6C6E74" stroke-width="0.12" stroke-linecap="round" stroke-linejoin="round"/>
<path d="M336.774 136.927L336.925 137.227V137.827L336.774 137.977" stroke="#6C6E74" stroke-width="0.12" stroke-linecap="round" stroke-linejoin="round"/>
<path d="M69.8248 24.0635L57.8135 29.3164M72.5272 175.949V175.348M72.0767 173.397V175.048M72.0767 184.654V183.153M71.9267 175.949V176.549M71.0259 53.48V161.841M71.0259 48.0271V48.177M71.0259 166.994H71.1759M70.1251 176.449V179.751M70.1251 38.6719V35.3699M70.1251 183.053V181.102M65.921 166.693V166.844M65.921 48.2772V48.4271V48.127M65.921 166.994V172.097M65.921 47.977V42.9742M65.921 166.944V166.643M65.7711 48.2271V166.794M61.417 166.794V171.146M61.417 43.8747V48.2271M295.936 39.8224L295.636 39.2221M296.236 39.8224L296.086 39.2221" stroke="#6C6E74" stroke-width="0.12" stroke-linecap="round" stroke-linejoin="round"/>
<path d="M298.339 30.6672H298.189L298.039 30.5171H297.438L297.288 30.6672H297.138" stroke="#6C6E74" stroke-width="0.12" stroke-linecap="round" stroke-linejoin="round"/>
<path d="M294.735 30.6672H294.585L294.435 30.5171H293.834L293.684 30.6672H293.534" stroke="#6C6E74" stroke-width="0.12" stroke-linecap="round" stroke-linejoin="round"/>
<path d="M284.226 30.6672H284.075L283.925 30.5171H283.325L283.175 30.6672H283.024" stroke="#6C6E74" stroke-width="0.12" stroke-linecap="round" stroke-linejoin="round"/>
<path d="M280.622 30.6672H280.472L280.322 30.5171H279.721L279.571 30.6672H279.421" stroke="#6C6E74" stroke-width="0.12" stroke-linecap="round" stroke-linejoin="round"/>
<path d="M274.316 30.6672H274.166L274.016 30.5171H273.416L273.265 30.6672H273.115" stroke="#6C6E74" stroke-width="0.12" stroke-linecap="round" stroke-linejoin="round"/>
<path d="M308.398 40.2726L308.248 40.1226H307.347" stroke="#6C6E74" stroke-width="0.12" stroke-linecap="round" stroke-linejoin="round"/>
<path d="M304.645 40.2726V40.1226" stroke="#6C6E74" stroke-width="0.12" stroke-linecap="round" stroke-linejoin="round"/>
<path d="M298.338 40.2726L298.188 40.1226H297.438" stroke="#6C6E74" stroke-width="0.12" stroke-linecap="round" stroke-linejoin="round"/>
<path d="M305.395 24.2135L285.377 20.4614M80.7351 45.6754L79.8343 46.2758M51.3076 134.375L51.6079 133.775M103.406 42.3737L104.758 39.672M83.2876 171.896V173.147M83.2876 173.447V175.098M83.2876 184.704V183.202M82.9873 173.197V172.146M82.9873 181.301V179.951M82.3865 176.048V175.448M82.0862 173.497V175.148M82.0862 184.753V183.253M81.7859 176.048V176.649M79.8343 48.3271V46.3759M79.8343 169.145V167.194M79.6841 170.495V172.447M79.6841 45.0251V43.0739M77.1817 176.048V176.649M77.0317 173.497V175.148M77.0317 184.753V183.253M76.5812 176.048V175.448M75.9806 173.197V172.146M75.9806 181.301V179.951M75.6804 173.497V175.148M75.6804 184.753V183.253M75.6804 171.996V173.247M73.2782 171.996V173.247M73.2782 173.547V175.198M73.2782 184.803V183.303M73.1279 173.297V172.246M73.1279 181.402V180.051M281.823 40.1725L281.523 39.5722M282.123 40.1725L281.973 39.5722M280.472 43.4742L280.772 43.7744M299.69 45.8758L300.591 46.4761M294.135 42.4238L293.534 42.1236M274.316 30.8673L273.716 30.5669M298.338 40.4726L297.888 40.1725M304.044 42.4238L303.443 42.1236M284.225 30.8673L283.775 30.5669M308.398 40.4726L307.797 40.1725M294.735 40.4726L294.585 40.3224" stroke="#6C6E74" stroke-width="0.12" stroke-linecap="round" stroke-linejoin="round"/>
<path d="M307.197 30.6672H306.897L306.596 30.5171H305.395L305.095 30.6672H304.645" stroke="#6C6E74" stroke-width="0.12" stroke-linecap="round" stroke-linejoin="round"/>
<path d="M297.138 30.6672H296.837L296.537 30.5171H295.336L295.036 30.6672H294.735" stroke="#6C6E74" stroke-width="0.12" stroke-linecap="round" stroke-linejoin="round"/>
<path d="M283.024 30.6672H282.724L282.424 30.5171H281.223L280.922 30.6672H280.622" stroke="#6C6E74" stroke-width="0.12" stroke-linecap="round" stroke-linejoin="round"/>
<path d="M273.115 30.6672H272.815L272.515 30.5171H271.313L271.013 30.6672H270.713" stroke="#6C6E74" stroke-width="0.12" stroke-linecap="round" stroke-linejoin="round"/>
<path d="M307.197 40.2726L306.897 40.1226H304.945L304.645 40.2726" stroke="#6C6E74" stroke-width="0.12" stroke-linecap="round" stroke-linejoin="round"/>
<path d="M304.644 40.1226H303.593L303.443 40.2726" stroke="#6C6E74" stroke-width="0.12" stroke-linecap="round" stroke-linejoin="round"/>
<path d="M307.347 42.0739L307.197 41.9238" stroke="#6C6E74" stroke-width="0.12" stroke-linecap="round" stroke-linejoin="round"/>
<path d="M294.585 40.1226H293.684L293.534 40.2726" stroke="#6C6E74" stroke-width="0.12" stroke-linecap="round" stroke-linejoin="round"/>
<path d="M297.438 42.0739H297.288L297.138 41.9238" stroke="#6C6E74" stroke-width="0.12" stroke-linecap="round" stroke-linejoin="round"/>
<path d="M280.472 40.1226H279.571L279.421 40.2726" stroke="#6C6E74" stroke-width="0.12" stroke-linecap="round" stroke-linejoin="round"/>
<path d="M283.325 42.0739H283.175L283.024 41.9238" stroke="#6C6E74" stroke-width="0.12" stroke-linecap="round" stroke-linejoin="round"/>
<path d="M270.713 30.6672H270.563L270.413 30.5171H269.812L269.662 30.6672H269.512" stroke="#6C6E74" stroke-width="0.12" stroke-linecap="round" stroke-linejoin="round"/>
<path d="M284.225 40.2726V40.1226H283.324" stroke="#6C6E74" stroke-width="0.12" stroke-linecap="round" stroke-linejoin="round"/>
<path d="M280.622 40.2726L280.472 40.1226" stroke="#6C6E74" stroke-width="0.12" stroke-linecap="round" stroke-linejoin="round"/>
<path d="M274.316 40.2726L274.166 40.1226H273.415" stroke="#6C6E74" stroke-width="0.12" stroke-linecap="round" stroke-linejoin="round"/>
<path d="M103.456 44.9252L102.405 45.5255M50.7568 141.829L51.0571 141.229M96.5495 175.899V175.298M96.0992 173.347V174.998M96.0992 184.603V183.103M95.9489 175.899V176.499M91.5949 158.789V191.207M91.5949 56.4316V24.0132M87.0905 175.899V176.499M86.9406 173.347V174.998M86.9406 184.603V183.103M86.49 175.899V175.298M85.8895 173.047V171.996M85.8895 181.151V179.801M85.7395 173.347V174.998M85.7395 184.603V183.103M85.7395 171.846V173.097M271.914 39.9721L271.613 39.3718M272.214 39.9721L271.914 39.3718M276.918 42.3737L275.667 39.672M329.718 147.232L329.417 146.632M329.117 139.728L328.817 139.128M270.562 43.2241L270.862 43.5242M269.962 42.1734L269.511 41.8732M277.018 44.8751L278.069 45.4754M274.316 40.2225L273.715 39.9224M279.971 42.1734L279.371 41.8732M284.175 40.2225L283.725 39.9224M270.662 40.2225L270.512 40.0723" stroke="#6C6E74" stroke-width="0.12" stroke-linecap="round" stroke-linejoin="round"/>
<path d="M297.138 40.2726L296.837 40.1226H295.036L294.735 40.2726" stroke="#6C6E74" stroke-width="0.12" stroke-linecap="round" stroke-linejoin="round"/>
<path d="M283.024 40.2726L282.724 40.1226H280.922L280.622 40.2726" stroke="#6C6E74" stroke-width="0.12" stroke-linecap="round" stroke-linejoin="round"/>
<path d="M273.115 40.2726L272.815 40.1226H271.013L270.713 40.2726" stroke="#6C6E74" stroke-width="0.12" stroke-linecap="round" stroke-linejoin="round"/>
<path d="M270.563 40.1226H269.662L269.512 40.2726" stroke="#6C6E74" stroke-width="0.12" stroke-linecap="round" stroke-linejoin="round"/>
<path d="M273.416 42.0739H273.265L273.115 41.9238" stroke="#6C6E74" stroke-width="0.12" stroke-linecap="round" stroke-linejoin="round"/>
<path d="M211.858 27.9656L182.581 28.8661M285.427 20.4614L264.157 21.9622M242.086 25.2639L211.908 27.9656M43.7509 129.573L43.1504 130.023M107.41 171.896V173.147M107.41 173.447V175.098M107.41 184.704V183.202M107.26 173.197V172.146M107.26 181.301V179.951M106.509 176.048V175.448M106.209 173.497V175.148M106.209 184.753V183.253M106.059 176.048V176.649M103.557 170.495V172.447M103.557 45.0251V43.0739M103.257 48.3271V46.3759M103.257 169.145V167.194M101.305 176.048V176.649M101.154 173.497V175.148M101.154 184.753V183.253M100.704 176.048V175.448M100.104 173.197V172.146M100.104 181.301V179.951M99.9534 173.497V175.148M99.9534 184.753V183.253M99.9534 171.996V173.247M97.5512 171.996V173.247M97.5512 173.547V175.198M97.5512 184.803V183.303M97.251 173.297V172.246M97.251 181.402V180.051M336.875 135.176L337.476 135.776M331.47 76.3427L334.173 77.6935" stroke="#6C6E74" stroke-width="0.12" stroke-linecap="round" stroke-linejoin="round"/>
<path d="M137.988 29.6166L154.053 29.3164L182.58 28.8662" stroke="#6C6E74" stroke-width="0.12" stroke-linecap="round" stroke-linejoin="round"/>
<path d="M328.817 68.0383L327.165 67.5879M121.323 29.4666L103.456 27.8156M86.0396 24.9639L69.7744 24.0635M137.938 29.6168L121.272 29.4666M267.359 35.47H310.299M70.0747 35.47H113.015M297.387 35.0196H304.444M283.274 35.0196H294.534M273.264 35.0196H280.471M75.3796 35.0196H107.66M297.437 34.5695H304.494M283.324 34.5695H294.584M273.315 34.5695H280.521M267.459 34.1192H310.399M267.459 32.168H310.399M273.715 30.4046H269.962M283.724 30.4046H279.971M297.838 30.4046H294.084M307.747 30.4046H303.993" stroke="#6C6E74" stroke-width="0.12" stroke-linecap="round" stroke-linejoin="round"/>
<path d="M336.774 148.633H336.925V149.234L336.774 149.534" stroke="#6C6E74" stroke-width="0.12" stroke-linecap="round" stroke-linejoin="round"/>
<path d="M65.9214 48.0769H71.0263M318.007 48.0769H313.002M277.269 46.276H300.541M79.8346 46.276H103.106M278.02 45.6756H299.64M80.6853 45.6756H102.306M102.306 45.5257H80.7855M299.74 45.5257H278.12M277.069 44.9254H300.841M79.8346 44.9254H103.607M66.0717 44.0246H61.5674M322.661 44.0246H318.307M273.115 43.5745H271.013M283.024 43.5745H280.923M297.188 43.5745H295.086M307.247 43.5745H305.145M273.466 43.2744H270.763M283.525 43.2744H280.672M297.638 43.2744H294.785M307.547 43.2744H304.695M79.9345 43.1242H66.1716M270.813 43.1242H103.457M277.019 43.1242H273.265M304.544 43.1242H300.791M318.207 43.1242H307.397M273.766 42.2237H270.012M283.775 42.2237H280.022M297.888 42.2237H294.135M307.798 42.2237H304.044M273.866 39.9724H269.812M283.925 39.9724H279.871M298.038 39.9724H293.985M307.948 39.9724H303.894M303.293 39.3721H308.548M293.384 39.3721H298.639M279.271 39.3721H284.526M269.211 39.3721H274.466M267.41 38.7717H310.35M70.1255 38.7717H113.065M264.107 21.9624L242.036 25.2641M79.5841 172.985L78.233 175.686M113.065 176.586V179.888M113.065 38.8093V35.5076M113.065 183.19V181.239M111.264 175.986V176.586M110.964 173.435V175.086M110.964 184.691V183.19M110.663 175.986V175.386M109.912 173.135V172.084M109.912 181.239V179.888M109.762 173.435V175.086M109.762 184.691V183.19M109.762 171.934V173.185M300.891 173.035L302.243 175.736" stroke="#6C6E74" stroke-width="0.12" stroke-linecap="round" stroke-linejoin="round"/>
<path d="M318.157 48.2271H71.0264" stroke="#6C6E74" stroke-width="0.12" stroke-linecap="round" stroke-linejoin="round"/>
<path d="M65.9209 48.2271H71.0257" stroke="#6C6E74" stroke-width="0.12" stroke-linecap="round" stroke-linejoin="round"/>
<path d="M318.307 48.377H318.007" stroke="#6C6E74" stroke-width="0.12" stroke-linecap="round" stroke-linejoin="round"/>
<path d="M60.5166 48.377H65.9217" stroke="#6C6E74" stroke-width="0.12" stroke-linecap="round" stroke-linejoin="round"/>
<path d="M73.1276 172.047L73.4279 171.746M348.035 72.0907H306.896M329.718 68.0385H331.069M318.307 67.5881H327.165M65.9209 166.794L71.0258 161.791M318.007 166.794L313.002 161.791M334.472 59.2335H336.724M312.952 53.3803H71.0258M103.456 27.7159L86.0398 24.8643M65.9209 48.4273H66.0712M318.157 48.4273H318.007M318.307 48.2773H323.412" stroke="#6C6E74" stroke-width="0.12" stroke-linecap="round" stroke-linejoin="round"/>
<path d="M273.115 41.9238L272.815 42.0739H271.013L270.713 41.9238" stroke="#6C6E74" stroke-width="0.12" stroke-linecap="round" stroke-linejoin="round"/>
<path d="M283.024 41.9238L282.724 42.0739H280.922L280.622 41.9238" stroke="#6C6E74" stroke-width="0.12" stroke-linecap="round" stroke-linejoin="round"/>
<path d="M297.138 41.9238L296.837 42.0739H295.036L294.735 41.9238" stroke="#6C6E74" stroke-width="0.12" stroke-linecap="round" stroke-linejoin="round"/>
<path d="M49.1057 141.88L46.4033 143.23M279.421 30.6673L280.022 30.3672M269.512 30.6673L269.962 30.3672M83.0373 172.047L83.4879 171.746M331.369 147.433L334.072 148.684M334.522 84.7476H336.775M318.307 76.6431H327.166M329.668 76.193H331.019" stroke="#6C6E74" stroke-width="0.12" stroke-linecap="round" stroke-linejoin="round"/>
<path d="M273.416 40.1226H273.265L273.115 40.2726" stroke="#6C6E74" stroke-width="0.12" stroke-linecap="round" stroke-linejoin="round"/>
<path d="M270.563 42.0739H269.662L269.512 41.9238" stroke="#6C6E74" stroke-width="0.12" stroke-linecap="round" stroke-linejoin="round"/>
<path d="M283.325 40.1226H283.175L283.024 40.2726" stroke="#6C6E74" stroke-width="0.12" stroke-linecap="round" stroke-linejoin="round"/>
<path d="M280.472 42.0739H279.571L279.421 41.9238" stroke="#6C6E74" stroke-width="0.12" stroke-linecap="round" stroke-linejoin="round"/>
<path d="M307.197 41.9238L306.897 42.0739H304.945L304.645 41.9238" stroke="#6C6E74" stroke-width="0.12" stroke-linecap="round" stroke-linejoin="round"/>
<path d="M270.712 41.9237L270.562 42.0739M303.443 30.6673L304.044 30.3672M279.421 40.2726L280.021 39.9725M273.765 42.2238L274.366 41.9237M293.584 30.6673L294.184 30.3672M269.561 40.2726L270.012 39.9725M107.26 172.047L107.56 171.746M97.2002 172.047L97.6508 171.746M318.357 96.1041H325.263" stroke="#6C6E74" stroke-width="0.12" stroke-linecap="round" stroke-linejoin="round"/>
<path d="M274.316 41.9238L274.166 42.0739H273.415" stroke="#6C6E74" stroke-width="0.12" stroke-linecap="round" stroke-linejoin="round"/>
<path d="M280.622 41.9238L280.472 42.0739" stroke="#6C6E74" stroke-width="0.12" stroke-linecap="round" stroke-linejoin="round"/>
<path d="M284.225 41.9238V42.0739H283.324" stroke="#6C6E74" stroke-width="0.12" stroke-linecap="round" stroke-linejoin="round"/>
<path d="M297.438 40.1226H297.288L297.138 40.2726" stroke="#6C6E74" stroke-width="0.12" stroke-linecap="round" stroke-linejoin="round"/>
<path d="M294.585 42.0739H293.684L293.534 41.9238" stroke="#6C6E74" stroke-width="0.12" stroke-linecap="round" stroke-linejoin="round"/>
<path d="M307.347 40.1226L307.197 40.2726" stroke="#6C6E74" stroke-width="0.12" stroke-linecap="round" stroke-linejoin="round"/>
<path d="M304.644 42.0739H303.593L303.443 41.9238" stroke="#6C6E74" stroke-width="0.12" stroke-linecap="round" stroke-linejoin="round"/>
<path d="M294.735 41.9236L294.585 42.0738M76.4311 175.348L77.0317 175.048M300.741 44.9752L299.69 45.5755M79.7341 170.446L80.7852 169.845M303.493 40.3226L304.094 40.0225M72.1269 173.447L72.7274 173.147M297.938 42.2738L298.388 41.9736M293.584 40.3226L294.184 40.0225M278.12 45.7257L277.369 46.326M283.825 42.2738L284.275 41.9736M272.264 179.901L272.865 180.351M79.7842 44.9752L80.835 45.5755M300.791 170.446L299.74 169.845M102.455 45.7257L103.206 46.326M328.817 139.216L327.165 138.765M318.307 100.644H325.264M307.847 98.3929H336.224M51.708 133.813L53.2094 133.362" stroke="#6C6E74" stroke-width="0.12" stroke-linecap="round" stroke-linejoin="round"/>
<path d="M298.338 41.9238L298.188 42.0739H297.438" stroke="#6C6E74" stroke-width="0.12" stroke-linecap="round" stroke-linejoin="round"/>
<path d="M304.645 41.9238V42.0739" stroke="#6C6E74" stroke-width="0.12" stroke-linecap="round" stroke-linejoin="round"/>
<path d="M308.398 41.9238L308.248 42.0739H307.347" stroke="#6C6E74" stroke-width="0.12" stroke-linecap="round" stroke-linejoin="round"/>
<path d="M100.454 175.348L101.055 175.048M76.4316 184.954L77.0322 184.654M96.1 173.398L96.7005 173.097M102.406 169.495L103.156 169.045M86.3408 175.299L86.9413 174.998M82.1367 173.347L82.5873 173.047M307.798 42.1738L308.398 41.8736M273.265 43.2245L272.965 43.5246M108.261 35.4201L107.661 34.9697M278.07 169.445L277.319 168.995M318.308 118.967H325.264M307.247 116.866H336.224M318.358 114.615H325.264" stroke="#6C6E74" stroke-width="0.12" stroke-linecap="round" stroke-linejoin="round"/>
<path d="M72.0771 173.397L72.2273 173.247H72.978" stroke="#6C6E74" stroke-width="0.12" stroke-linecap="round" stroke-linejoin="round"/>
<path d="M75.6807 173.397L75.8308 173.247" stroke="#6C6E74" stroke-width="0.12" stroke-linecap="round" stroke-linejoin="round"/>
<path d="M82.1367 173.397L82.2869 173.247H83.0376" stroke="#6C6E74" stroke-width="0.12" stroke-linecap="round" stroke-linejoin="round"/>
<path d="M100.453 184.954L101.054 184.654M110.513 175.348L110.963 175.048M86.3399 184.954L86.9404 184.654M106.158 173.397L106.609 173.097M283.324 43.2744L282.874 43.5746M334.522 130.461H336.774M45.9521 125.058H43.75M328.866 76.1303L327.215 76.5804M85.7393 173.385L85.8893 173.235" stroke="#6C6E74" stroke-width="0.12" stroke-linecap="round" stroke-linejoin="round"/>
<path d="M96.0996 173.397L96.2498 173.247H97.1506" stroke="#6C6E74" stroke-width="0.12" stroke-linecap="round" stroke-linejoin="round"/>
<path d="M99.8525 173.397L100.003 173.247" stroke="#6C6E74" stroke-width="0.12" stroke-linecap="round" stroke-linejoin="round"/>
<path d="M106.159 173.397L106.309 173.247H107.06" stroke="#6C6E74" stroke-width="0.12" stroke-linecap="round" stroke-linejoin="round"/>
<path d="M331.369 67.9255L334.071 66.6748M109.762 173.385L109.912 173.234" stroke="#6C6E74" stroke-width="0.12" stroke-linecap="round" stroke-linejoin="round"/>
<path d="M75.8301 173.247H76.8811L77.0312 173.397" stroke="#6C6E74" stroke-width="0.12" stroke-linecap="round" stroke-linejoin="round"/>
<path d="M72.9775 175.198L73.1277 175.048H73.2778" stroke="#6C6E74" stroke-width="0.12" stroke-linecap="round" stroke-linejoin="round"/>
<path d="M85.8896 173.247H86.7905L86.9406 173.397" stroke="#6C6E74" stroke-width="0.12" stroke-linecap="round" stroke-linejoin="round"/>
<path d="M83.0371 175.198L83.1872 175.048H83.3374" stroke="#6C6E74" stroke-width="0.12" stroke-linecap="round" stroke-linejoin="round"/>
<path d="M110.513 184.954L110.963 184.653M307.397 43.3242L307.097 43.6244M297.488 43.3242L297.037 43.6244M351.088 143.28H307.547M65.8209 142.38H53.2093M50.8068 141.929H49.4558M329.718 139.228H331.069M318.307 138.777H327.165M34.9922 137.877H78.533M50.757 133.825H49.4057M65.7711 133.375H53.1592" stroke="#6C6E74" stroke-width="0.12" stroke-linecap="round" stroke-linejoin="round"/>
<path d="M100.003 173.247H100.904L101.054 173.397" stroke="#6C6E74" stroke-width="0.12" stroke-linecap="round" stroke-linejoin="round"/>
<path d="M97.1504 175.198L97.3005 175.048H97.4507" stroke="#6C6E74" stroke-width="0.12" stroke-linecap="round" stroke-linejoin="round"/>
<path d="M109.912 173.247H110.813L110.963 173.397" stroke="#6C6E74" stroke-width="0.12" stroke-linecap="round" stroke-linejoin="round"/>
<path d="M107.06 175.198L107.21 175.048H107.36" stroke="#6C6E74" stroke-width="0.12" stroke-linecap="round" stroke-linejoin="round"/>
<path d="M73.2783 173.397L73.5786 173.247H75.5304L75.6806 173.397" stroke="#6C6E74" stroke-width="0.12" stroke-linecap="round" stroke-linejoin="round"/>
<path d="M83.3379 173.397L83.6382 173.247H85.4399L85.7401 173.397" stroke="#6C6E74" stroke-width="0.12" stroke-linecap="round" stroke-linejoin="round"/>
<path d="M318.006 48.5273L313.002 53.5301M70.9755 53.5301L65.8706 48.5273M334.472 155.987H336.724M45.902 150.585H43.75M318.357 147.733H327.215M329.717 147.283H331.068" stroke="#6C6E74" stroke-width="0.12" stroke-linecap="round" stroke-linejoin="round"/>
<path d="M97.4512 173.397L97.6013 173.247H99.5531L99.8534 173.397" stroke="#6C6E74" stroke-width="0.12" stroke-linecap="round" stroke-linejoin="round"/>
<path d="M107.36 173.397L107.661 173.247H109.462L109.763 173.397" stroke="#6C6E74" stroke-width="0.12" stroke-linecap="round" stroke-linejoin="round"/>
<path d="M318.307 166.944H318.007M318.007 166.794H318.157M65.9209 166.794H66.0712M71.0759 161.791H313.102" stroke="#6C6E74" stroke-width="0.12" stroke-linecap="round" stroke-linejoin="round"/>
<path d="M60.5166 166.943H65.9217" stroke="#6C6E74" stroke-width="0.12" stroke-linecap="round" stroke-linejoin="round"/>
<path d="M318.007 167.094H313.002M318.257 166.943H323.362" stroke="#6C6E74" stroke-width="0.12" stroke-linecap="round" stroke-linejoin="round"/>
<path d="M65.9209 167.094H313.052" stroke="#6C6E74" stroke-width="0.12" stroke-linecap="round" stroke-linejoin="round"/>
<path d="M318.157 167.094H313.053" stroke="#6C6E74" stroke-width="0.12" stroke-linecap="round" stroke-linejoin="round"/>
<path d="M277.318 169.045H300.59M79.8838 169.045H103.156M65.9209 167.094H71.0258" stroke="#6C6E74" stroke-width="0.12" stroke-linecap="round" stroke-linejoin="round"/>
<path d="M127.629 189.456L141.292 184.053L155.105 179.551" stroke="#6C6E74" stroke-width="0.12" stroke-linecap="round" stroke-linejoin="round"/>
<path d="M83.0369 180.751H75.9805M97.1502 180.751H85.8896M107.16 180.751H100.053M272.865 180.301H305.145M83.087 180.301H76.0306M97.2003 180.301H85.9397M107.21 180.301H100.053M267.46 179.851H310.4M70.1752 179.851H113.115M267.46 176.549H310.4M70.1752 176.549H113.115M77.2316 175.949H71.9768M87.1408 175.949H81.886M101.254 175.949H95.9992M111.313 175.949H106.059M106.509 175.348H110.713M96.5997 175.348H100.654M82.4865 175.348H86.5403M72.5773 175.348H76.6311M106.659 173.097H110.563M96.7998 173.097H100.553M82.6869 173.097H86.4404M72.7774 173.097H76.5309M300.841 172.197H318.257M110.012 172.197H277.119M103.556 172.197H107.31M76.0306 172.197H79.7841M66.0212 172.197H73.228M107.31 172.047H110.012M97.2504 172.047H100.053M83.087 172.047H85.9397M73.1779 172.047H76.0306M107.56 171.746H109.662M97.6508 171.746H99.7527M83.4875 171.746H85.5894M73.428 171.746H75.5299M318.157 171.296H322.511M61.417 171.296H65.921M103.456 170.396H79.6839M300.691 170.396H276.918M277.969 169.795H299.589M80.6348 169.795H102.255M277.919 169.495H299.539M80.5847 169.495H102.205M154.904 179.501L182.08 177.85M113.265 193.609L127.379 189.406" stroke="#6C6E74" stroke-width="0.12" stroke-linecap="round" stroke-linejoin="round"/>
<path d="M182.28 177.9L210.206 182.102L237.982 186.605" stroke="#6C6E74" stroke-width="0.12" stroke-linecap="round" stroke-linejoin="round"/>
<path d="M328.817 147.283L327.166 147.733M336.775 80.3451L337.375 79.7448M274.466 39.3721V38.7718M274.316 30.6673V32.168M274.316 41.9236V40.2726M273.866 39.3721V39.9724M273.265 42.2237V43.2744M273.265 34.1192V35.4701M273.115 30.6673V32.168M273.115 41.9236V40.2726M273.115 43.4244V42.1737M270.713 43.4244V42.1737M270.713 30.6172V32.1183M270.713 41.8735V40.2228M270.563 42.1737V43.2243M270.563 34.0691V35.42M269.812 39.322V39.9226M269.512 30.6172V32.1183M269.512 41.8735V40.2228M269.211 39.322V38.7217M267.41 176.499V179.801M267.41 32.1183V34.1568M267.41 38.8093V35.5076M49.1057 133.663L46.4033 132.412M237.982 186.592L255.248 187.643H272.515M290.682 187.643H303.894M106.609 184.941H110.513M96.7504 184.941H100.504M82.6371 184.941H86.3907M72.7277 184.941H76.4812M70.2253 183.14H113.166M70.2253 181.189H113.166M272.615 187.643H290.782M96.3499 194.847L113.616 193.596M300.991 42.2613L302.342 39.5599M79.6342 42.2613L78.2831 39.5599M51.7083 141.767L53.2096 142.217" stroke="#6C6E74" stroke-width="0.12" stroke-linecap="round" stroke-linejoin="round"/>
<path d="M107.36 184.653H107.961L108.261 184.803H108.862L109.162 184.653H109.462H109.763" stroke="#6C6E74" stroke-width="0.12" stroke-linecap="round" stroke-linejoin="round"/>
<path d="M107.36 175.048H107.661L107.961 175.198H109.162L109.462 175.048H109.763" stroke="#6C6E74" stroke-width="0.12" stroke-linecap="round" stroke-linejoin="round"/>
<path d="M97.4512 175.048H97.6013L97.9016 175.198H99.2529L99.5531 175.048H99.8534" stroke="#6C6E74" stroke-width="0.12" stroke-linecap="round" stroke-linejoin="round"/>
<path d="M83.3379 175.048H83.6382L83.7883 175.198H85.1396L85.4399 175.048H85.7401" stroke="#6C6E74" stroke-width="0.12" stroke-linecap="round" stroke-linejoin="round"/>
<path d="M73.2783 175.048H73.5786L73.8789 175.198H75.2301L75.5304 175.048H75.6806" stroke="#6C6E74" stroke-width="0.12" stroke-linecap="round" stroke-linejoin="round"/>
<path d="M107.06 173.247H107.21L107.36 173.397" stroke="#6C6E74" stroke-width="0.12" stroke-linecap="round" stroke-linejoin="round"/>
<path d="M109.912 175.048L110.062 175.198H110.663L110.813 175.048H110.963" stroke="#6C6E74" stroke-width="0.12" stroke-linecap="round" stroke-linejoin="round"/>
<path d="M97.1504 173.247H97.3005L97.4507 173.397" stroke="#6C6E74" stroke-width="0.12" stroke-linecap="round" stroke-linejoin="round"/>
<path d="M100.003 175.048L100.153 175.198H100.754L100.904 175.048H101.054" stroke="#6C6E74" stroke-width="0.12" stroke-linecap="round" stroke-linejoin="round"/>
<path d="M78.9834 191.858L96.2496 194.859M303.944 187.655L316.556 186.304M331.419 139.178L334.122 137.827M284.576 39.3721V38.7718M284.275 30.6673V32.168M284.275 41.9236V40.2726M283.975 39.3721V39.9724M283.375 42.2237V43.2744M283.375 34.1192V35.4701M283.074 30.6673V32.168M283.074 41.9236V40.2726M283.074 43.4244V42.1737M280.672 43.4244V42.1737M280.672 30.6172V32.1183M280.672 41.8735V40.2228M280.522 42.1737V43.2243M280.522 34.0691V35.42M279.921 39.322V39.9226M279.471 30.6172V32.1183M279.471 41.8735V40.2228M279.321 39.322V38.7217M277.369 48.1771V46.2259M277.369 168.995V167.044M277.069 170.345V172.297M277.069 44.8754V42.9242M111.013 173.347L110.563 173.047" stroke="#6C6E74" stroke-width="0.12" stroke-linecap="round" stroke-linejoin="round"/>
<path d="M97.4512 184.653H98.0517L98.352 184.803H98.9526L99.2529 184.653H99.5531H99.8534" stroke="#6C6E74" stroke-width="0.12" stroke-linecap="round" stroke-linejoin="round"/>
<path d="M83.3379 184.653H83.9385L84.2387 184.803H84.8393L85.1396 184.653H85.4399H85.7401" stroke="#6C6E74" stroke-width="0.12" stroke-linecap="round" stroke-linejoin="round"/>
<path d="M73.2783 184.653H73.8789L74.1792 184.803H74.7797L75.08 184.653H75.3803H75.6806" stroke="#6C6E74" stroke-width="0.12" stroke-linecap="round" stroke-linejoin="round"/>
<path d="M83.0371 173.247H83.1872L83.3374 173.397" stroke="#6C6E74" stroke-width="0.12" stroke-linecap="round" stroke-linejoin="round"/>
<path d="M85.8896 175.048L86.0398 175.198H86.6403L86.7905 175.048H86.9406" stroke="#6C6E74" stroke-width="0.12" stroke-linecap="round" stroke-linejoin="round"/>
<path d="M72.9775 173.247H73.1277L73.2778 173.397" stroke="#6C6E74" stroke-width="0.12" stroke-linecap="round" stroke-linejoin="round"/>
<path d="M75.8301 175.048L75.9802 175.198H76.7309L76.8811 175.048H77.0312" stroke="#6C6E74" stroke-width="0.12" stroke-linecap="round" stroke-linejoin="round"/>
<path d="M109.762 184.653H110.062L110.212 184.803H110.512L110.663 184.653H110.813H110.963" stroke="#6C6E74" stroke-width="0.12" stroke-linecap="round" stroke-linejoin="round"/>
<path d="M106.159 184.653H106.459L106.61 184.803H106.91L107.06 184.653H107.21H107.36" stroke="#6C6E74" stroke-width="0.12" stroke-linecap="round" stroke-linejoin="round"/>
<path d="M109.762 175.048H109.912" stroke="#6C6E74" stroke-width="0.12" stroke-linecap="round" stroke-linejoin="round"/>
<path d="M106.159 175.048H106.309L106.459 175.198H107.06" stroke="#6C6E74" stroke-width="0.12" stroke-linecap="round" stroke-linejoin="round"/>
<path d="M99.8525 175.048H100.003" stroke="#6C6E74" stroke-width="0.12" stroke-linecap="round" stroke-linejoin="round"/>
<path d="M96.0996 175.048H96.2498L96.3999 175.198H97.1506" stroke="#6C6E74" stroke-width="0.12" stroke-linecap="round" stroke-linejoin="round"/>
<path d="M62.5176 185.104L79.033 191.858M299.739 169.495L300.64 169.045M277.068 170.396L278.119 169.795M329.167 75.5428L328.866 76.1431M329.768 68.0386L329.467 68.4886M276.918 172.947L275.667 175.649M298.638 39.3222V38.7219M298.338 30.6174V32.1185M298.338 41.8737V40.223M298.038 39.3222V39.9228M297.437 42.1738V43.2245M297.437 34.0693V35.4202M297.137 30.6174V32.1185M297.137 41.8737V40.223M297.137 43.3748V42.1241M294.735 43.3748V42.1241M294.735 30.5673V32.0684M294.735 41.8236V40.1729M294.585 42.1241V43.1745M294.585 34.0192V35.3701M293.984 39.2724V39.8727M293.533 30.5673V32.0684M293.533 41.8236V40.1729M293.383 39.2724V38.6721M288.879 158.739V191.157M288.879 56.3819V23.9639M103.456 172.797L104.807 175.499M109.912 171.896L109.611 171.596M106.609 184.804L106.158 184.504M86.9404 173.247L86.3399 172.947M80.7848 169.345L79.8837 168.895M96.6996 175.148L96.0991 174.848M101.104 173.197L100.503 172.897M106.659 175.148L106.208 174.848M103.506 170.196L102.455 169.595M85.7895 174.848H85.9394" stroke="#6C6E74" stroke-width="0.12" stroke-linecap="round" stroke-linejoin="round"/>
<path d="M99.8525 184.653H100.153L100.303 184.803H100.603L100.753 184.653H100.904H101.054" stroke="#6C6E74" stroke-width="0.12" stroke-linecap="round" stroke-linejoin="round"/>
<path d="M96.0996 184.653H96.55L96.7002 184.803H97.0005L97.1506 184.653H97.3007H97.4509" stroke="#6C6E74" stroke-width="0.12" stroke-linecap="round" stroke-linejoin="round"/>
<path d="M85.7393 184.653H86.0395L86.1897 184.803H86.49L86.6401 184.653H86.7902H86.9404" stroke="#6C6E74" stroke-width="0.12" stroke-linecap="round" stroke-linejoin="round"/>
<path d="M82.1367 184.653H82.437L82.5871 184.803H82.8874L83.0376 184.653H83.1877H83.3378" stroke="#6C6E74" stroke-width="0.12" stroke-linecap="round" stroke-linejoin="round"/>
<path d="M75.6807 184.653H76.1311L76.2812 184.803H76.5815L76.7317 184.653H76.8818H77.0319" stroke="#6C6E74" stroke-width="0.12" stroke-linecap="round" stroke-linejoin="round"/>
<path d="M82.1367 175.048H82.2869V175.198H83.0376" stroke="#6C6E74" stroke-width="0.12" stroke-linecap="round" stroke-linejoin="round"/>
<path d="M75.6807 175.048H75.8308" stroke="#6C6E74" stroke-width="0.12" stroke-linecap="round" stroke-linejoin="round"/>
<path d="M72.0771 175.048H72.2273L72.3774 175.198H72.978" stroke="#6C6E74" stroke-width="0.12" stroke-linecap="round" stroke-linejoin="round"/>
<path d="M310.35 176.549V179.851M310.35 32.1681V34.1568M310.35 38.8094V35.5077M308.548 39.4097V38.8094M308.398 30.7049V32.2056M308.398 41.9612V40.3102M307.948 39.4097V40.01M307.347 42.2613V43.312M307.347 34.1568V35.5077M307.197 30.7049V32.2056M307.197 41.9612V40.3102M307.197 43.462V42.2112M304.695 43.462V42.2112M304.695 30.6548V32.1556M304.695 41.9111V40.2601M304.545 42.2112V43.2619M304.545 34.1067V35.4576M303.944 39.3596V39.9599M303.494 30.6548V32.1556M303.494 41.9111V40.2601M303.343 39.3596V38.7593M300.841 170.383V172.334M300.841 44.913V42.9618M300.691 48.2147V46.2635M300.691 169.033V167.081M85.9903 172.084L85.69 171.784M100.104 172.084L99.8032 171.784M82.537 184.954L82.0865 184.654M72.6279 175.348L72.0273 175.048M96.6503 184.954L96.0497 184.654M76.9819 173.397L76.3814 173.097M82.537 175.348L82.0865 175.048" stroke="#6C6E74" stroke-width="0.12" stroke-linecap="round" stroke-linejoin="round"/>
<path d="M72.0771 184.653H72.3774L72.5276 184.803H72.8278L72.978 184.653H73.1281H73.2783" stroke="#6C6E74" stroke-width="0.12" stroke-linecap="round" stroke-linejoin="round"/>
<path d="M43.7509 146.082L43.1504 145.481M76.0312 172.046L75.5806 171.746M72.7279 184.954L72.1274 184.653" stroke="#6C6E74" stroke-width="0.12" stroke-linecap="round" stroke-linejoin="round"/>
<path d="M43.7009 132.424H43.5508V131.824L43.7009 131.524" stroke="#6C6E74" stroke-width="0.12" stroke-linecap="round" stroke-linejoin="round"/>
<path d="M336.774 151.485L337.375 151.035M334.522 130.473V155.987M334.522 59.3331V84.6973M329.718 147.282V139.178L329.417 139.778V146.682M329.718 68.0382V76.1427M329.417 75.5424V68.4883M329.117 75.5424V68.4883M329.117 139.778V146.682L328.817 147.282V139.178M328.817 76.1427V68.0382M327.165 138.728V147.733M327.165 67.5878V76.5928M325.213 114.714V119.067M325.213 96.1038V100.606M51.3574 141.279L51.6576 141.879M50.7568 133.775L51.0571 134.375M52.8587 179.1L62.4676 185.104M316.455 186.354L327.115 181.552M305.495 179.901L305.045 180.351M323.362 67.6379V48.427M323.362 96.1539V76.6429M323.362 114.764V100.656M323.362 138.778V119.117M323.362 166.993V147.783M322.461 48.427V44.0746M322.461 171.346V166.993M318.257 166.993V48.427M318.107 167.144V172.246M318.107 48.2771V48.5772M318.107 48.1268V43.124M318.107 167.094V166.793M317.956 48.5271V48.3772M317.956 166.943V166.793M312.952 48.0767V48.227M312.952 161.841V53.4799M312.952 167.094H313.102" stroke="#6C6E74" stroke-width="0.12" stroke-linecap="round" stroke-linejoin="round"/>
<path d="M52.859 179.101L44.7515 171.597L38.5957 162.892" stroke="#6C6E74" stroke-width="0.12" stroke-linecap="round" stroke-linejoin="round"/>
<path d="M43.7009 144.131L43.5508 143.83V143.23L43.7009 143.08" stroke="#6C6E74" stroke-width="0.12" stroke-linecap="round" stroke-linejoin="round"/>
<path d="M346.984 121.468L345.633 115.165L344.281 108.711" stroke="#6C6E74" stroke-width="0.12" stroke-linecap="round" stroke-linejoin="round"/>
<path d="M347.885 127.922L346.984 121.468" stroke="#6C6E74" stroke-width="0.12" stroke-linecap="round" stroke-linejoin="round"/>
<path d="M344.282 108.711L343.681 102.707L343.531 96.7041" stroke="#6C6E74" stroke-width="0.12" stroke-linecap="round" stroke-linejoin="round"/>
<path d="M343.531 96.6916L343.831 90.5382M337.375 135.563V151.022M337.375 64.2735V79.732M336.774 130.461V155.975M336.774 59.3208V84.6847" stroke="#6C6E74" stroke-width="0.12" stroke-linecap="round" stroke-linejoin="round"/>
<path d="M345.633 67.5879L345.032 78.9944L343.831 90.5508" stroke="#6C6E74" stroke-width="0.12" stroke-linecap="round" stroke-linejoin="round"/>
<path d="M335.873 170.546L331.97 176.699L327.165 181.502" stroke="#6C6E74" stroke-width="0.12" stroke-linecap="round" stroke-linejoin="round"/>
<path d="M345.633 67.5878L343.831 57.082M34.792 151.335L38.5455 162.891" stroke="#6C6E74" stroke-width="0.12" stroke-linecap="round" stroke-linejoin="round"/>
<path d="M347.885 127.922L347.285 139.929L344.132 151.935L339.327 163.792L335.874 170.546" stroke="#6C6E74" stroke-width="0.12" stroke-linecap="round" stroke-linejoin="round"/>
<path d="M103.456 42.374V42.9743M79.6842 42.9743L79.5342 42.374" stroke="#6C6E74" stroke-width="0.12" stroke-linecap="round" stroke-linejoin="round"/>
<path d="M106.159 38.772L105.408 39.0721L104.808 39.6725" stroke="#6C6E74" stroke-width="0.12" stroke-linecap="round" stroke-linejoin="round"/>
<path d="M78.2324 39.6725L77.7819 39.0721L77.0312 38.772" stroke="#6C6E74" stroke-width="0.12" stroke-linecap="round" stroke-linejoin="round"/>
<path d="M65.9216 48.0771L65.7715 48.2272V48.3773" stroke="#6C6E74" stroke-width="0.12" stroke-linecap="round" stroke-linejoin="round"/>
<path d="M300.891 42.374L300.741 42.9743M276.968 42.9743L276.818 42.374M65.8711 48.2272H66.0214" stroke="#6C6E74" stroke-width="0.12" stroke-linecap="round" stroke-linejoin="round"/>
<path d="M303.293 38.772L302.693 39.0721L302.242 39.6725" stroke="#6C6E74" stroke-width="0.12" stroke-linecap="round" stroke-linejoin="round"/>
<path d="M275.667 39.6725L275.217 39.0721L274.466 38.772" stroke="#6C6E74" stroke-width="0.12" stroke-linecap="round" stroke-linejoin="round"/>
<path d="M334.523 78.244L334.072 77.4935M334.072 66.6876L334.523 65.937M331.069 68.0384L331.37 67.8882M331.37 76.1429H331.069" stroke="#6C6E74" stroke-width="0.12" stroke-linecap="round" stroke-linejoin="round"/>
<path d="M318.307 48.3773L318.157 48.2272L318.007 48.0771" stroke="#6C6E74" stroke-width="0.12" stroke-linecap="round" stroke-linejoin="round"/>
<path d="M103.456 172.347V172.947M79.584 172.947L79.7343 172.347M318.007 48.2271H318.157" stroke="#6C6E74" stroke-width="0.12" stroke-linecap="round" stroke-linejoin="round"/>
<path d="M104.808 175.648L105.258 176.249L106.009 176.399" stroke="#6C6E74" stroke-width="0.12" stroke-linecap="round" stroke-linejoin="round"/>
<path d="M77.1816 176.399L77.7822 176.249L78.2326 175.648" stroke="#6C6E74" stroke-width="0.12" stroke-linecap="round" stroke-linejoin="round"/>
<path d="M46.4027 143.23L45.9521 143.981M45.9521 131.674L46.4027 132.424M49.1051 133.675L49.4054 133.825M49.4054 141.93H49.1051" stroke="#6C6E74" stroke-width="0.12" stroke-linecap="round" stroke-linejoin="round"/>
<path d="M65.7715 166.943V167.094H65.9216" stroke="#6C6E74" stroke-width="0.12" stroke-linecap="round" stroke-linejoin="round"/>
<path d="M300.74 172.347L300.891 172.947M276.868 172.947L277.018 172.347" stroke="#6C6E74" stroke-width="0.12" stroke-linecap="round" stroke-linejoin="round"/>
<path d="M302.242 175.648L302.693 176.249L303.443 176.549" stroke="#6C6E74" stroke-width="0.12" stroke-linecap="round" stroke-linejoin="round"/>
<path d="M274.316 176.549L275.067 176.249L275.668 175.648" stroke="#6C6E74" stroke-width="0.12" stroke-linecap="round" stroke-linejoin="round"/>
<path d="M334.022 137.827L334.473 137.077M334.473 149.384L334.022 148.634M331.32 147.383L331.02 147.233M331.02 139.128H331.32" stroke="#6C6E74" stroke-width="0.12" stroke-linecap="round" stroke-linejoin="round"/>
<path d="M318.007 167.094H318.157L318.307 166.943" stroke="#6C6E74" stroke-width="0.12" stroke-linecap="round" stroke-linejoin="round"/>
<path d="M318.007 167.094H318.157" stroke="#6C6E74" stroke-width="0.12" stroke-linecap="round" stroke-linejoin="round"/>
</svg>
