<svg width="1353" height="732" viewBox="0 0 1353 732" fill="none" xmlns="http://www.w3.org/2000/svg">
<path d="M309.675 335.237V344.993" stroke="#6C6E74" stroke-width="0.12" stroke-linecap="round" stroke-linejoin="round"/>
<path d="M301.417 332.236L326.04 340.04L301.417 347.844" stroke="#6C6E74" stroke-width="0.12" stroke-linecap="round" stroke-linejoin="round"/>
<path d="M46.7785 405.627L45.7275 404.876L45.127 404.126V403.075L45.7275 402.325L46.328 402.025L46.7785 401.575L48.5801 401.274H49.7813L51.583 401.575L52.634 402.325L53.2345 403.075V404.126L52.634 404.876L51.583 405.627" stroke="#6C6E74" stroke-width="0.12" stroke-linecap="round" stroke-linejoin="round"/>
<path d="M53.2345 405.627H45.127" stroke="#6C6E74" stroke-width="0.12" stroke-linecap="round" stroke-linejoin="round"/>
<path d="M-58.3193 383.114L41.9744 400.074V407.128" stroke="#6C6E74" stroke-width="0.12" stroke-linecap="round" stroke-linejoin="round"/>
<path d="M-590.117 503.632V539.052M-590.117 145.531V180.951M-596.572 141.179V122.856M-596.572 166.63V148.32M-596.572 536.288V518.077M-596.572 561.852V543.542M-597.173 207.353V172.234M-597.173 512.424V477.304M-598.674 207.303V172.183M-598.674 512.374V477.255M-598.975 517.927V561.702M-598.975 122.706V166.48M509.562 603.375L508.06 600.373M488.992 550.345L489.142 550.646M496.349 606.927L495.749 606.327M1352.9 224.863V223.212M1352.9 456.893V455.092M1347.49 76.73V92.1887M1346.89 71.7773V97.1414M1344.04 71.7773V97.1414M1339.99 447.338V464.847M1339.99 215.258V232.767M1339.84 137.714V546.243M1339.39 80.3821V88.3365M1339.09 87.8863V80.8323M1338.79 87.8863V80.8323M1338.49 88.3365V80.3821M1336.83 88.7868V79.9319M1322.57 42.8611V134.712" stroke="#6C6E74" stroke-width="0.12" stroke-linecap="round" stroke-linejoin="round"/>
<path d="M-500.182 185.454V499.317M-500.182 198.548V486.109M-501.834 366.342V367.093M-501.834 317.715V318.315M-506.188 367.093V368.143M-506.188 361.99V366.342M-506.188 325.219V359.589M-506.188 318.315V322.668M-506.188 316.414V317.765M-507.84 367.143V368.193M-507.84 362.04V366.392M-507.84 325.269V359.639M-507.84 318.366V322.718M-507.84 316.464V317.815M-510.542 361.94V381.451M-510.542 325.169V359.839M-510.542 303.407V322.968M202.775 138.064H202.625M203.225 138.064H202.875" stroke="#6C6E74" stroke-width="0.12" stroke-linecap="round" stroke-linejoin="round"/>
<path d="M199.171 123.769H199.471V123.919" stroke="#6C6E74" stroke-width="0.12" stroke-linecap="round" stroke-linejoin="round"/>
<path d="M297.062 593.682L297.213 593.982V594.583L297.062 594.733" stroke="#6C6E74" stroke-width="0.12" stroke-linecap="round" stroke-linejoin="round"/>
<path d="M272.59 641.409H272.439" stroke="#6C6E74" stroke-width="0.12" stroke-linecap="round" stroke-linejoin="round"/>
<path d="M272.74 641.409H272.89" stroke="#6C6E74" stroke-width="0.12" stroke-linecap="round" stroke-linejoin="round"/>
<path d="M272.59 641.559V641.409" stroke="#6C6E74" stroke-width="0.12" stroke-linecap="round" stroke-linejoin="round"/>
<path d="M231.602 546.406H231.752" stroke="#6C6E74" stroke-width="0.12" stroke-linecap="round" stroke-linejoin="round"/>
<path d="M-390.43 324.882V324.281M-390.43 360.452V359.851M262.981 588.73L264.783 591.881M255.024 574.772L256.825 577.924M289.356 604.038L289.055 603.438M288.905 596.534L288.605 595.934M-21.685 131.573L-21.9853 131.273M-21.685 122.268L-21.9853 121.968" stroke="#6C6E74" stroke-width="0.12" stroke-linecap="round" stroke-linejoin="round"/>
<path d="M213.435 133.675H212.384M-22.2853 133.374H-21.985M-28.7415 133.374H-27.3401M-48.3598 133.374H-48.2095M-55.116 133.374H-53.7649M-17.2806 133.374H195.769M-17.2806 133.224H195.769M-558.236 133.074H-557.486M-47.9092 133.074H-48.3598M-21.6347 133.074H-22.3354M-32.5448 132.324H-31.494M-58.8194 132.324H-57.5682M-48.7101 132.324H-49.9613M-22.4356 132.324H-23.7866M-47.9593 131.573H-48.4099M-21.6847 131.573H-22.3354M-22.3354 131.273H-22.0351M-28.7913 131.273H-27.3401M-48.3598 131.273H-48.2095M-55.116 131.273H-53.7649M158.083 130.823H159.134M86.016 130.823H88.1179M15.9004 130.823H14.8493M-32.5949 130.673H-31.3437M-58.6694 130.673H-57.4182M-435.271 130.673H-430.767M-23.7368 130.673H-22.3354M-50.1113 130.673H-48.6099M-549.779 130.523H-550.229M-50.7118 130.223H-51.1123M-24.5375 130.223H-24.988M-24.988 129.922H-30.6931M-60.7212 129.922H-59.8204M-24.3872 129.922H-24.8377H-24.6874M-21.6847 129.922H-22.5856M-24.2372 129.922H-1.56584M-31.4439 129.922H-30.8434M-61.472 129.922H-72.7325M-22.8858 129.622H-24.2372M-31.2936 129.322H-33.2455M-22.8858 128.572H-24.137M128.406 128.121H129.156M57.5394 128.121H58.2899M-43.6554 127.971H-38.4005M-555.134 127.221H-549.728M-430.367 127.221H-541.921M-430.217 127.221H-430.066M-36.9991 127.221H-45.7572M-24.137 126.621H-22.8858M-33.2455 126.02H-31.2936M-22.8858 125.72H-24.2372M-427.815 125.57H-427.664M-541.921 125.57H-427.965M-550.179 125.57H-549.728M-24.2372 125.42H-1.56584M-24.6874 125.42H-24.8377H-24.3872M-31.4439 125.42H-30.8434M-61.472 125.42H-72.7325M-60.7212 125.42H-59.8204M-21.6847 125.42H-22.5856M-24.988 125.27H-30.6931M-50.7118 125.12H-51.1123M-24.5375 125.12H-24.988M-38.3504 124.97H-44.2058M-23.9369 124.669H-22.3354M-50.1113 124.669H-48.6099M-24.5875 124.519H-23.987M-50.7118 124.519H-50.2616M-32.7452 124.519H-31.494M-58.8194 124.519H-57.5682M194.968 124.369H195.719M124.702 124.369H127.805M53.7859 124.369H56.9389M-17.3808 124.369H-16.48M-22.3354 124.107H-22.0351M-28.7913 124.107H-27.3401M-48.3598 124.107H-48.2095M-55.116 124.107H-53.7649M-47.9092 123.807H-48.3598M-21.6347 123.807H-22.3354M-20.834 123.807H-16.48M58.2899 123.807H53.7859M129.156 123.807H124.652M199.272 123.807H194.918M-20.6838 123.656H-17.3307M199.122 123.656H195.668M-32.5448 123.056H-31.494M-58.8194 123.056H-57.5682M-48.7101 123.056H-49.9613M-22.4356 123.056H-23.7866M-596.622 122.856H-599.024M-555.233 122.856H-557.636M-48.0595 122.256H-48.5098M-21.7849 122.256H-22.3354M-44.2559 122.256H-38.4005M-22.3354 121.956H-22.0351M-28.7913 121.956H-27.3401M-48.3598 121.956H-48.2095M-55.116 121.956H-53.7649M-47.1587 121.505H-35.2976M-32.5949 121.355H-31.3437M-58.6694 121.355H-57.4182M-23.7866 121.355H-22.3354M-50.1113 121.355H-48.6099M-50.7118 120.905H-51.1123M-24.5375 120.905H-24.988M-47.2085 119.404H-35.3474M-47.2085 119.104H-35.3474M-57.5682 118.504H-55.1661M-51.1123 118.504H-53.8147M-28.7913 118.504H-31.494M-25.0378 118.504H-27.3401M-47.1587 116.552H-35.2976M-129.285 115.802H-129.436H-125.982M-133.039 115.802H-129.586M-79.4386 115.202H-130.186M-37.8498 113.951H-44.6063M-44.306 113.651H-44.8564M-37.8 113.651H-38.2502M-44.8564 111.85H-37.8M-122.88 109.599H-123.33M-98.8568 109.599H-99.3074M-98.8568 108.998H-79.4887M-122.88 108.998H-99.3074M-140.596 108.998H-123.33" stroke="#6C6E74" stroke-width="0.12" stroke-linecap="round" stroke-linejoin="round"/>
<path d="M231.452 138.027H199.472H202.875M231.752 138.027H235.205M-29.092 138.027H-24.8382M-473.157 137.577H-476.911M-446.432 137.577H-450.186M-560.389 136.976H-558.287M-57.5687 136.826H-55.1665M-51.1127 136.826H-53.8152M-28.7918 136.826H-31.4945M-25.0383 136.826H-27.3405M-50.6124 134.425H-51.1127M-24.5379 134.425H-24.9885M-23.9374 133.975H-22.3358M-50.1117 133.975H-48.6104M-24.588 133.825H-23.9875M-50.7123 133.825H-50.262M-32.7457 133.825H-31.4945M-58.8198 133.825H-57.5687M-550.53 133.675H-550.38M-560.739 133.675H-558.337" stroke="#6C6E74" stroke-width="0.12" stroke-linecap="round" stroke-linejoin="round"/>
<path d="M231.602 138.027H290.006" stroke="#6C6E74" stroke-width="0.12" stroke-linecap="round" stroke-linejoin="round"/>
<path d="M-20.9344 141.329H-21.0847M-24.2376 141.179H-21.0847M-436.223 141.179H-430.217M-422.26 140.879H-479.163M-24.2376 140.879H-29.8429M-558.337 140.728H-557.586M-29.2423 140.278H-24.738M-550.53 140.128H-550.38M-560.739 140.128H-558.337M-422.31 139.828H-479.213M-472.457 139.228H-477.712M-445.732 139.228H-450.987M232.903 138.777H235.905M231.401 138.327H231.551M231.401 138.177H231.551" stroke="#6C6E74" stroke-width="0.12" stroke-linecap="round" stroke-linejoin="round"/>
<path d="M-50.0613 130.673L-50.6618 130.523M-42.7045 132.774L-48.4099 131.123M-46.1578 126.47L-50.6618 125.12M-99.1571 130.223H-100.058M-93.9023 130.973H-93.7523M-107.115 124.819H-107.715M-106.214 121.368H-105.914M-88.0469 123.319L-87.7466 123.469M-89.8485 119.266H-89.6985M-549.728 143.28H-550.179M-31.594 143.13H-17.3308M199.472 143.13H195.718M-36.5489 142.079H-34.8471M-20.8842 142.079H-31.5442M-444.13 141.929H-479.163M231.502 141.779H199.522M231.502 141.629H290.056" stroke="#6C6E74" stroke-width="0.12" stroke-linecap="round" stroke-linejoin="round"/>
<path d="M-512.344 323.081L-511.893 322.931M-143.699 106.96L-143.099 106.659M-542.322 331.635L-541.871 331.335M-549.679 332.236L-549.078 331.786M-286.182 179.9L-286.032 179.75M-143.849 97.5043L-144.3 97.8044M-148.504 98.2547L-148.053 97.9545M-289.035 178.55L-288.885 178.4M-151.657 91.9512L-151.206 91.501M-365.907 288.561L-365.006 287.061M-367.508 285.56L-368.409 287.061M-437.774 399.023L-436.873 397.523M-335.228 145.831V153.035M-338.832 174.047V124.82M-342.435 153.035V145.831M-356.198 171.796V90.1501M-356.198 594.583V581.676M-359.651 581.676V594.583M-359.651 90.1501V171.796M-359.801 171.796V90.1501M-359.801 594.583V581.676M-361.303 403.676V280.907M241.061 626.888L242.862 630.04M210.882 574.809L212.684 577.961M-48.5602 121.455L-48.4102 121.605M-25.5889 152.222L-25.4386 152.523M-32.7957 133.762L-32.6454 133.912M221.242 573.108L219.44 569.957M251.27 625.187L249.468 622.036M-33.296 129.26L-34.1968 127.609M-32.8454 124.307L-32.6955 124.457M-31.3441 125.958L-30.2933 127.609M254.973 618.834L256.775 621.986M224.845 566.855L226.647 570.007M-23.9373 133.862V134.012M-22.2856 130.71V130.861M-23.9373 124.607V124.757M-22.8862 125.808L-22.7362 126.108M-21.6851 125.507H-21.5351M237.307 573.259L235.505 570.107M259.378 611.38L257.576 608.228M-22.3357 121.368V121.518M262.931 604.939L264.733 608.09M240.96 566.817L242.762 569.969M251.17 581.075L249.368 577.924M259.278 595.033L257.476 591.881M-36.5492 116.615L-38.0505 114.114M-38.3508 128.372L-38.5008 128.071M-33.2459 152.685L-35.0475 150.884M-47.9597 131.611L-48.2599 131.311M-33.2459 143.918L-31.5943 145.569M-25.4386 145.869L-25.7389 145.419M-25.7389 145.269L-26.0392 144.968M-47.9597 122.306L-48.2599 122.005" stroke="#6C6E74" stroke-width="0.12" stroke-linecap="round" stroke-linejoin="round"/>
<path d="M199.472 138.027H199.922" stroke="#6C6E74" stroke-width="0.12" stroke-linecap="round" stroke-linejoin="round"/>
<path d="M201.424 138.027H202.024" stroke="#6C6E74" stroke-width="0.12" stroke-linecap="round" stroke-linejoin="round"/>
<path d="M-444.18 168.944H-404.693M-444.18 168.794H-404.693M-557.536 166.693H-555.134M-598.925 166.693H-596.623M-437.474 166.693H-428.966M-411.249 165.792H-439.626M-411.249 164.742H-439.626M-436.473 162.34H-436.173M-550.429 162.34H-555.084M-429.867 162.34H-430.217M-438.325 162.04H-436.973M-428.415 161.89H-429.466M-429.917 161.74H-429.466M-20.7842 161.44H199.321M-438.325 161.44H-438.775M-430.217 161.29H-430.067M-436.223 161.29H-436.072M-438.925 161.29H-438.325M-438.175 160.539H-437.123M-428.565 160.539H-429.466M-430.217 159.789H-430.067M-436.223 159.789H-436.072M-438.925 159.789H-438.325M-438.325 159.639H-438.775M-253.502 159.339H-274.221M-436.523 159.189H-436.973M-429.466 159.039H-428.415M-438.325 159.039H-436.973M-549.729 159.039H-550.179M-436.523 158.588H-436.223M-429.967 158.588H-430.217M-253.502 157.988H-274.221M-436.223 156.937H-430.217M-558.287 156.487H-557.536M-28.7418 155.887H-24.838M-550.48 155.887H-550.329M-560.689 155.887H-558.287M-29.4923 154.236H-24.2375M-20.7842 153.636H-34.8474M-335.278 153.035H-342.485M-560.339 152.735H-558.237M235.105 152.585H236.006M195.968 152.585H199.572M76.6069 152.585H80.2102M-34.7973 152.585H-20.684M-43.6556 152.585H-36.4489M235.155 152.585H231.552M-25.3383 152.135H-28.0411M199.422 150.784H76.5067M-550.48 149.533H-550.329M-560.689 149.533H-558.287" stroke="#6C6E74" stroke-width="0.12" stroke-linecap="round" stroke-linejoin="round"/>
<path d="M-60.2714 176.899H-60.1211M-66.7273 169.845H-66.5773M-62.5236 174.497H-62.3733M19.3031 277.305L18.8526 276.855M19.3031 264.548L18.8526 264.098M19.3031 255.543L18.8526 255.093M-89.8489 144.781H-89.6989M-98.1068 138.327H-97.9565M-92.8519 142.529H-92.7016M-107.716 124.819L-99.9084 130.973M-107.115 124.819L-100.059 130.373M-100.059 130.223L-106.965 124.819M-107.265 124.069L-99.1575 130.223M-17.8315 180.801H-17.6815M-500.083 180.801H-446.633M-437.474 180.801H-444.23M-420.658 180.801H-428.966M-17.8816 180.801H-134.941M-420.658 180.651H-134.941M-406.545 180.201H-410.148M-285.682 180.201H-289.436M-145.451 180.201H-149.054M-148.604 179.9H-145.901M-288.985 179.9H-286.283M-409.698 179.9H-406.995M-148.604 178.4H-145.901M-288.985 178.4H-286.283M-409.698 178.4H-406.995M-148.154 175.698H-146.352M-288.384 175.698H-286.733M-409.248 175.698H-407.446M-444.23 174.047H-443.93M-597.223 172.246H-598.725" stroke="#6C6E74" stroke-width="0.12" stroke-linecap="round" stroke-linejoin="round"/>
<path d="M272.59 641.559H272.74" stroke="#6C6E74" stroke-width="0.12" stroke-linecap="round" stroke-linejoin="round"/>
<path d="M-78.2877 96.4537L-79.1885 94.6526M-1.61596 281.808L-2.21649 280.757M1.08646 286.16L0.786192 285.71M2.88807 280.907L3.03836 281.207M-2.51676 263.698L-2.96732 262.797M199.122 611.242L197.32 608.09M207.229 625.2L205.428 622.048M14.9495 289.912L15.0995 290.212M2.93817 268.15L3.08845 268.45M14.9495 280.957L15.0995 281.257M17.6018 285.009L17.7521 285.309M2.93817 259.182L3.08845 259.482M210.883 618.934L212.684 622.086M202.925 604.976L204.727 608.128M199.172 595.071L197.37 591.919M221.242 633.192L219.441 630.04M17.702 275.954L17.8523 276.254M14.9996 268.15L15.1496 268.45M224.846 626.888L226.647 630.04M202.875 588.767L204.677 591.919M-58.9697 133.712L-58.8194 133.862M-60.7713 129.96L-61.0716 129.51M14.9495 259.182L15.0995 259.482M17.6018 263.235L17.7521 263.535M-61.3718 125.958L-61.5221 125.507M-59.0198 124.457L-58.8695 124.607M17.702 254.18L17.8523 254.48M207.329 581.063L205.528 577.911M237.357 633.142L235.556 629.99M-50.1614 133.812L-50.0114 133.962M-48.5098 130.66L-48.3598 130.81M-50.1614 124.557L-50.0114 124.707" stroke="#6C6E74" stroke-width="0.12" stroke-linecap="round" stroke-linejoin="round"/>
<path d="M9.24414 283.458L9.39427 283.758V284.209L9.24414 284.359" stroke="#6C6E74" stroke-width="0.12" stroke-linecap="round" stroke-linejoin="round"/>
<path d="M17.3516 254.192L17.5017 254.492V254.792L17.6518 255.092V255.393V255.693V255.993L17.5017 256.143V256.443L17.3516 256.743" stroke="#6C6E74" stroke-width="0.12" stroke-linecap="round" stroke-linejoin="round"/>
<path d="M17.3516 256.743L17.5017 257.044V257.344L17.6518 257.644V257.944V258.244V258.544L17.5017 258.845V259.145L17.3516 259.445" stroke="#6C6E74" stroke-width="0.12" stroke-linecap="round" stroke-linejoin="round"/>
<path d="M17.3516 263.197L17.5017 263.497V263.797L17.6518 264.098V264.398V264.698V264.998L17.5017 265.298V265.448L17.3516 265.748" stroke="#6C6E74" stroke-width="0.12" stroke-linecap="round" stroke-linejoin="round"/>
<path d="M17.3516 265.748L17.5017 266.199V266.349L17.6518 266.649V266.949V267.249V267.549L17.5017 267.849V268.15L17.3516 268.45" stroke="#6C6E74" stroke-width="0.12" stroke-linecap="round" stroke-linejoin="round"/>
<path d="M17.3516 275.954L17.5017 276.254V276.554L17.6518 276.855V277.155V277.455V277.755L17.5017 277.905V278.205L17.3516 278.506L17.5017 278.806V279.106L17.6518 279.406V279.706V280.006V280.307L17.5017 280.607V280.907L17.3516 281.207" stroke="#6C6E74" stroke-width="0.12" stroke-linecap="round" stroke-linejoin="round"/>
<path d="M17.3516 284.959L17.5017 285.259V285.56L17.6518 285.86V286.16V286.46V286.76L17.5017 287.06V287.21L17.3516 287.661L17.5017 287.961V288.261L17.6518 288.411V288.711V289.011V289.312L17.5017 289.612V289.912L17.3516 290.212" stroke="#6C6E74" stroke-width="0.12" stroke-linecap="round" stroke-linejoin="round"/>
<path d="M149.074 217.571H187.66M-597.123 207.366H-598.625M-495.629 185.454H-22.8365M-22.8365 180.951H-481.816H-597.123M-449.235 180.951H-17.5816M-17.8819 180.951H-17.7319" stroke="#6C6E74" stroke-width="0.12" stroke-linecap="round" stroke-linejoin="round"/>
<path d="M9.84437 323.681L9.24384 323.231M297.663 592.331L297.063 591.731M9.84437 281.957L9.24384 281.507M19.2532 286.31L18.8026 285.86M-148.604 179.9L-148.754 179.75M-145.751 178.499L-145.901 178.349" stroke="#6C6E74" stroke-width="0.12" stroke-linecap="round" stroke-linejoin="round"/>
<path d="M9.24414 295.015L9.39427 295.165V295.765L9.24414 296.065" stroke="#6C6E74" stroke-width="0.12" stroke-linecap="round" stroke-linejoin="round"/>
<path d="M297.062 605.389H297.213V605.989L297.062 606.289" stroke="#6C6E74" stroke-width="0.12" stroke-linecap="round" stroke-linejoin="round"/>
<path d="M1.73619 347.394L1.28564 346.794M3.78798 344.693L3.48771 344.092M1.08556 337.939L0.635311 337.339M2.88717 340.04L3.18744 340.64M-3.06841 329.384L-3.66895 328.334M-1.16661 318.128L-0.866337 318.578M1.636 293.814L1.18575 293.214M9.74356 337.189L9.29331 336.738M207.178 546.556L209.681 549.557" stroke="#6C6E74" stroke-width="0.12" stroke-linecap="round" stroke-linejoin="round"/>
<path d="M9.24414 388.667L9.39427 388.967V389.568H9.24414" stroke="#6C6E74" stroke-width="0.12" stroke-linecap="round" stroke-linejoin="round"/>
<path d="M9.39355 337.939L9.54369 338.239V338.839H9.39355" stroke="#6C6E74" stroke-width="0.12" stroke-linecap="round" stroke-linejoin="round"/>
<path d="M17.3516 394.521L17.5017 394.821V395.121L17.6518 395.421V395.571V395.871V396.172L17.5017 396.472V396.772L17.3516 397.072L17.5017 397.372V397.673L17.6518 397.973V398.273V398.573V398.873L17.5017 399.173V399.474L17.3516 399.774" stroke="#6C6E74" stroke-width="0.12" stroke-linecap="round" stroke-linejoin="round"/>
<path d="M17.3516 403.526L17.5017 403.826V404.126L17.6518 404.426V404.726V404.876V405.177L17.5017 405.477V405.777L17.3516 406.077L17.5017 406.377V406.677L17.6518 406.978V407.278V407.578V407.878L17.5017 408.178V408.478L17.3516 408.779" stroke="#6C6E74" stroke-width="0.12" stroke-linecap="round" stroke-linejoin="round"/>
<path d="M17.3516 416.283L17.5017 416.583V416.883L17.6518 417.183V417.334V417.634V417.934L17.5017 418.234V418.534L17.3516 418.834L17.5017 419.135V419.435L17.6518 419.735V420.035V420.335V420.635L17.5017 420.936V421.236L17.3516 421.536" stroke="#6C6E74" stroke-width="0.12" stroke-linecap="round" stroke-linejoin="round"/>
<path d="M17.3516 425.288L17.5017 425.588V425.888L17.6518 426.188V426.489V426.639V426.939L17.5017 427.239V427.539L17.3516 427.839L17.5017 428.139V428.44L17.6518 428.74V429.04V429.34V429.64L17.5017 429.94V430.241L17.3516 430.541" stroke="#6C6E74" stroke-width="0.12" stroke-linecap="round" stroke-linejoin="round"/>
<path d="M0.835816 285.71L-0.815814 285.26M19.0028 255.243H17.7517M17.7517 255.092H18.8024M9.19354 255.092H10.5449M15.0489 254.192H17.5513M2.98779 254.192H5.18986M14.1982 253.592H13.5977M9.24364 252.091H5.18986M13.5977 252.091H10.595M-17.6315 239.171H6.6912M290.006 237.22H290.156M-517.299 237.07H-541.571M-541.571 236.019H-516.798M187.61 235.119H149.074M6.7413 234.969H-17.5814M290.206 229.266H303.119M-4.51923 228.015H-17.5814M290.206 227.565H303.119M157.782 227.114H179.052M-4.56932 226.214H-17.6315M157.732 225.463H179.002M289.956 219.61H290.106" stroke="#6C6E74" stroke-width="0.12" stroke-linecap="round" stroke-linejoin="round"/>
<path d="M6.09093 295.165L3.23822 293.814M5.03983 284.209L0.0351562 281.808" stroke="#6C6E74" stroke-width="0.12" stroke-linecap="round" stroke-linejoin="round"/>
<path d="M9.39355 345.743L9.54369 345.893V346.494L9.39355 346.794" stroke="#6C6E74" stroke-width="0.12" stroke-linecap="round" stroke-linejoin="round"/>
<path d="M-122.43 120.354V120.204M-140.296 109.398H-140.146M-144.8 106.897H-144.65M-143.899 96.541L-142.999 94.7401M-229.179 508.222V503.869M-250.049 171.796V161.44M-148.554 96.4035L-149.455 94.6025M-89.2485 276.692L-88.6479 277.943M-86.696 276.692L-87.2966 275.441M2.93762 430.178L3.08791 430.478M-1.56641 422.073L-2.16694 421.023M-49.8617 330.885L-49.2611 331.935M2.98772 421.236L3.138 421.536M-47.3593 330.885L-47.9599 329.634M-70.6312 290.162L-70.0307 291.413M-2.46752 403.826L-2.91777 403.075M-68.0788 290.212L-68.6793 289.161M-57.1185 308.973L-56.518 310.023M14.949 430.241L15.099 430.541M2.93762 408.479L3.08791 408.779M-54.4659 308.973L-55.2167 307.722M1.68645 399.023L1.2362 398.423M14.8989 421.236L15.0489 421.536M17.5512 425.288L17.7015 425.438M2.83773 399.473L2.98772 399.773M1.03582 391.519L0.73555 390.919M17.5512 416.283L17.7015 416.433M14.8488 408.479L14.9991 408.779M-5.11984 366.255L-4.96986 366.555M14.8488 399.423L14.9991 399.724M17.5014 403.476L17.6514 403.626M17.5014 394.47L17.6514 394.621M-1.06606 358.5L-0.765793 358.951M-2.01696 356.449L-2.6175 355.199M1.58656 360.451L0.985722 359.851M9.8441 333.436L9.24356 332.836M1.58656 320.079L0.985722 319.478" stroke="#6C6E74" stroke-width="0.12" stroke-linecap="round" stroke-linejoin="round"/>
<path d="M13.5977 292.313H10.595M-70.0306 291.413H-68.6292M-174.178 291.413H-172.827M14.2483 290.813H13.6478M15.1491 290.212H17.6514M14.1982 290.212H14.949M17.8017 289.312H18.8525M9.84416 289.312H10.595M-172.877 289.162H-174.228M-68.6793 289.162H-70.0306M19.0028 289.162H17.7516M-367.609 288.561H-365.957M-439.526 288.561H-437.875M17.3512 287.661H15.3993M19.0028 286.01H17.7516M17.7516 285.86H18.8024M9.79406 285.86H10.5449M1.68651 285.71H3.03787M-437.924 285.56H-439.576M-366.007 285.56H-367.659M-0.86593 285.259H-10.1746M10.0943 285.259H9.79406M15.0489 284.959H17.5513M2.98777 284.959H4.6394M14.0983 284.359H13.4975M-0.165201 281.857H-1.66654M14.0983 281.857H13.4975M-3.0179 281.707H-10.9752M14.9991 281.257H17.5015M2.93768 281.257H5.18984M14.1982 281.257H14.949M-361.453 280.957H-443.88M17.8017 280.357H18.8525M9.24362 280.357H10.595M19.0028 280.207H17.7516M3.33813 278.556H5.18984M17.3512 278.556H15.3993M-88.6479 277.943H-87.2965M-155.611 277.943H-154.259M19.0028 277.042H17.7516M9.19352 277.042H6.44101M17.8518 276.892H18.9026M9.29371 276.892H10.6451M15.1491 275.992H17.6514M3.08796 275.992H5.18984M-154.259 275.542H-155.611M-87.2965 275.542H-88.6479M14.1982 275.391H13.5977M-110.568 270.739H-109.217M-133.69 270.739H-132.339M14.1982 269.088H13.5977M-132.339 268.487H-133.69M-109.217 268.487H-110.568M15.099 268.487H17.6013M3.03787 268.487H5.18984M14.1982 268.487H14.949M17.8017 267.587H18.8525M9.24362 267.587H10.595M19.0028 267.437H17.7516M3.33813 265.786H5.18984M17.3512 265.786H15.3993M19.0028 264.285H17.7516M17.7516 264.135H18.8024M9.19352 264.135H10.5449M15.0489 263.234H17.5513M2.98777 263.234H5.18984M-2.91771 262.784H-15.9799M14.1982 262.634H13.5977M-1.56635 262.634H-0.06501M14.1982 260.133H13.5977M15.099 259.532H17.6013M3.03787 259.532H5.18984M14.1982 259.532H14.949M10.1945 259.182H9.89425M17.8518 258.582H18.9026M9.29371 258.582H10.6451M19.0529 258.432H17.8017M3.38823 256.781H5.18984M17.3512 256.781H15.3993M-24.8382 155.887L-24.6879 155.737M-24.8382 140.278L-24.6879 140.128M-28.892 138.027H-28.742M-29.1923 138.027H-29.0423" stroke="#6C6E74" stroke-width="0.12" stroke-linecap="round" stroke-linejoin="round"/>
<path d="M-288.935 179.9L-289.085 179.75M-286.082 178.499L-286.232 178.349M4.03911 358.3L0.135313 356.499M5.9907 348.845L3.1383 347.494M4.93991 344.643L6.74153 345.543" stroke="#6C6E74" stroke-width="0.12" stroke-linecap="round" stroke-linejoin="round"/>
<path d="M19.3036 426.638L18.853 426.188M19.3036 417.433L18.853 417.133M19.3036 404.626L18.853 404.326M9.84468 387.066L9.24414 386.616M19.2535 395.621L18.8029 395.171" stroke="#6C6E74" stroke-width="0.12" stroke-linecap="round" stroke-linejoin="round"/>
<path d="M9.24414 400.224L9.39427 400.374V400.974L9.24414 401.274" stroke="#6C6E74" stroke-width="0.12" stroke-linecap="round" stroke-linejoin="round"/>
<path d="M-180.534 303.119H-180.684M-170.474 303.119H-179.633M-82.1922 302.519H-81.2914M-102.161 302.519H-101.26M9.24339 302.519H6.44079M-63.6247 301.268H-63.3244M-83.7436 301.268H-82.8428M-103.712 301.268H-102.811M-0.715869 294.214H-8.22289M3.18762 293.764H1.83657M-4.91993 318.378H-4.76965M-60.0215 178.5L-59.8712 178.35M-33.8969 152.535L-34.7977 153.436M-28.0415 145.781L-27.7413 145.331M-28.4918 145.181L-28.0415 144.881M-429.667 544.405L-429.066 543.804M-21.8856 133.324L-21.5853 133.024M-21.8856 124.019L-21.5853 123.719M-48.1601 133.324L-47.8599 133.024M-89.2987 146.382V146.231M-154.259 277.943L-153.509 276.692M-155.611 275.441L-156.211 276.692M-193.596 331.923L-192.846 330.873M-194.947 329.622L-195.548 330.873M-172.877 291.4L-172.276 290.15M-174.228 289.099L-174.829 290.15M-186.39 309.961L-185.789 308.91M-187.741 307.66L-188.341 308.91M-359.051 594.821L-359.201 594.97M-73.6341 96.4537L-72.7333 94.6526M-175.579 388.067V388.217M-175.579 381.463V386.867M-175.579 303.87V380.863M-175.579 297.717V303.119M-175.579 296.366V296.666" stroke="#6C6E74" stroke-width="0.12" stroke-linecap="round" stroke-linejoin="round"/>
<path d="M-1.41607 322.18H-4.41876M-513.395 321.88H-512.944M-4.86931 321.43H-4.71903M-538.018 320.679H-537.868M-512.944 320.379H-520.001M-4.86931 320.229H-4.71903M-0.815535 319.779H1.28634M-0.815535 319.479H0.986076M-500.182 318.228H-510.542M-4.86931 318.078H-1.1158M-500.182 317.628H-510.542M-506.188 316.277H-507.789M-512.894 315.977H-519.951M9.29401 315.977H4.6397M-512.894 315.226H-519.951M-510.492 315.076H-500.132M-500.132 314.026H-510.492M-511.543 313.726H-510.492M-17.531 311.224H-9.87399M-56.4174 309.974H-55.0661M-187.69 309.974H-186.339M-186.339 307.722H-187.69M-55.0661 307.722H-56.4174M-65.5761 307.272H-100.108M-17.531 306.822H-9.87399M-63.7745 306.071H-62.8734M-83.7431 306.071H-82.8423M-103.712 306.071H-102.811M-62.1228 304.82H-61.9726M-82.0915 304.82H-81.1907M-102.06 304.82H-101.159M-61.6723 303.77H-61.5223M-180.884 303.77H-181.034M-170.374 303.77H-179.983" stroke="#6C6E74" stroke-width="0.12" stroke-linecap="round" stroke-linejoin="round"/>
<path d="M-513.395 326.082H-512.945M-515.647 325.632H-514.046M-508.341 325.182H-505.838M-515.748 325.031H-519.051M-508.841 325.031H-512.294M-0.766141 324.881H1.03547M-413.202 324.881H-390.38M-519.251 324.731H-515.647M-0.816237 324.581H1.28564M-413.252 324.281H-390.43M-515.547 323.981H-514.196M-519.301 323.081H-515.698M-515.698 322.93H-519.051M-508.841 322.93H-512.294M-505.688 322.63H-508.191" stroke="#6C6E74" stroke-width="0.12" stroke-linecap="round" stroke-linejoin="round"/>
<path d="M-193.596 329.684H-194.997M-48.0097 329.684H-49.361M-4.31893 328.334H-3.7184M9.19376 328.334H6.19108M-2.06677 328.183H-0.265155" stroke="#6C6E74" stroke-width="0.12" stroke-linecap="round" stroke-linejoin="round"/>
<path d="M-406.795 178.55L-406.945 178.399M-473.157 137.577H-472.857M-549.278 85.9476L-549.879 85.6475M-541.922 86.3979L-542.372 86.0977M-446.432 137.577H-446.282M6.09063 400.374L3.23793 399.023" stroke="#6C6E74" stroke-width="0.12" stroke-linecap="round" stroke-linejoin="round"/>
<path d="M-393.132 342.291H-411.299M-271.368 342.291H-374.815M-62.2226 341.041H-61.3218M-102.16 341.041H-101.259M4.58975 339.99H3.83892M2.93812 339.99H1.43678M-63.8742 339.84H-62.9734M-103.812 339.84H-102.911M-521.953 337.439H-526.307M0.685953 337.289H-3.96836M1.73705 337.139H2.78814M-520.001 336.988H-526.006M9.39435 333.086H6.9919M-49.3107 331.836H-47.9594M-194.947 331.836H-193.595M-549.128 331.685H-542.522M-542.371 331.535H-549.278M-541.921 331.235H-549.729M-538.918 347.494H-538.768M-3.96836 336.988H-3.81807M-9.22321 289.712H-9.07293M-14.4781 268.1H-14.3281M-10.2743 284.459V284.609M-14.7783 267.099H-14.6284" stroke="#6C6E74" stroke-width="0.12" stroke-linecap="round" stroke-linejoin="round"/>
<path d="M-513.395 358.651H-512.945M-1.11633 358.5H-4.41928M-0.215523 356.399H-2.01713M9.24339 356.399H6.24071M-4.2693 356.249H-3.66876M-49.3114 354.999H-47.96M-194.947 354.999H-193.596M-193.596 352.747H-194.998M-48.0101 352.747H-49.3615M9.34358 351.497H6.94113M-520.051 347.444H-526.057M2.73737 347.294H1.68628M0.635492 347.294H-4.01913M-522.003 347.144H-526.357M-63.925 344.743H-63.0242M-103.862 344.743H-102.961M2.88735 344.593H1.43611M3.83825 344.593H4.58908M-62.2233 343.342H-61.3225M-102.161 343.342H-101.26" stroke="#6C6E74" stroke-width="0.12" stroke-linecap="round" stroke-linejoin="round"/>
<path d="M-549.078 332.236H-549.679M-500.132 367.055H-510.492M-4.81936 366.605H-1.06585M-500.132 366.305H-510.492M-5.01944 366.305H-4.86946M-0.815681 365.054H0.98593M-0.815681 364.754H1.2862M-4.86946 364.454H-4.71917M-520.001 364.154H-512.945M-537.968 364.004H-537.818M-4.81936 363.103H-4.66908M-513.345 362.803H-512.894M-1.36612 362.503H-4.36881M-515.597 362.353H-514.045M-508.34 361.902H-505.838M-515.747 361.752H-519.05M-508.841 361.752H-512.294M-519.2 361.602H-515.597M-515.447 360.702H-514.096M-413.201 360.401H-390.38M-0.765585 360.101H1.33629M-519.15 359.801H-515.547M-0.715489 359.801H1.08612M-413.151 359.801H-390.33M-515.547 359.651H-519.05M-508.841 359.651H-512.294M-505.688 359.501H-508.19" stroke="#6C6E74" stroke-width="0.12" stroke-linecap="round" stroke-linejoin="round"/>
<path d="M-409.648 179.9L-409.798 179.75M5.03974 424.537L0.0350572 422.136M0.785881 390.869L-0.865748 390.418M-9.27357 394.921H-9.12328M-5.82033 373.009H-5.67004M-8.17238 389.818V389.668" stroke="#6C6E74" stroke-width="0.12" stroke-linecap="round" stroke-linejoin="round"/>
<path d="M272.74 641.409H272.59" stroke="#6C6E74" stroke-width="0.12" stroke-linecap="round" stroke-linejoin="round"/>
<path d="M17.8016 404.426H18.8524M9.24351 404.426H10.5949M-443.88 403.676H-361.403M15.1991 403.526H17.7014M3.13795 403.526H5.18973M-2.91782 403.075H-10.8754M14.148 402.925H13.5475M-0.115217 402.775H-1.61656M14.148 400.374H13.5475M15.0488 399.773H17.5511M2.98766 399.773H4.63929M14.0982 399.624H14.8487M-0.915831 399.473H-10.2248M10.0441 399.473H9.74385M-367.709 399.023H-366.057M-439.626 399.023H-437.975M2.98766 399.023H1.6363M17.7014 398.873H18.7525M9.74385 398.873H10.4947M18.9025 398.573H17.6513M17.2011 397.072H15.2492M-438.025 396.021H-439.676M-366.107 396.021H-367.659M18.9526 395.571H17.7014M-70.1306 395.571H-68.6293M-174.178 395.571H-172.827M17.8517 395.271H18.9025M9.89414 395.271H10.645M15.149 394.521H17.6513M14.1981 393.92H13.5976M-172.827 393.32H-174.178M-68.6293 393.32H-69.9806M13.6476 392.269H10.645M1.78659 390.919H3.13795M-0.76585 390.468H-8.27287M-63.6747 383.414H-63.3744M-83.7936 383.414H-82.8925M-103.762 383.414H-102.861M9.2936 382.164H6.4409M-82.142 382.014H-81.2412M-102.111 382.014H-101.21M-180.484 381.413H-180.634M-170.425 381.413H-179.583M-512.895 381.413H-511.543M-511.543 381.263H-510.492M-61.7228 380.813H-61.5728M-180.934 380.813H-181.084M-170.425 380.813H-180.033M-62.1734 379.562H-62.0231M-82.142 379.562H-81.2412M-102.111 379.562H-101.21M-63.8247 378.312H-62.9239M-83.7936 378.312H-82.8925M-103.762 378.312H-102.861M-17.5815 377.711H-9.9245M-100.159 377.261H-65.6266M-56.4679 376.811H-55.1166M-187.741 376.811H-186.39M-186.39 374.559H-187.741M-55.1166 374.559H-56.4679M-17.5815 373.309H-9.9245M-500.133 370.307H-510.492M-510.492 369.256H-500.133M-512.895 369.106H-519.951M-512.895 368.506H-519.951M9.2936 368.506H4.63929M-506.138 367.906H-507.79M-5.77053 311.712H-5.62024M0.835684 293.852L-0.815945 294.302M6.09054 284.296L3.23783 285.797M5.03944 260.283L0.0347645 262.534M-102.211 343.58L-102.511 343.73M-62.2732 304.958L-62.5735 305.108M-82.2419 304.958L-82.5424 305.108M-102.561 343.68L-102.711 343.98M-62.6737 305.108L-62.824 305.258M-82.6423 305.108L-82.7926 305.258" stroke="#6C6E74" stroke-width="0.12" stroke-linecap="round" stroke-linejoin="round"/>
<path d="M18.8522 267.549L19.3028 267.099M18.8522 258.544L19.3028 258.094M-193.396 569.218L-192.145 567.117M-174.428 535.149L-175.68 537.251M-109.167 416.283L-108.567 415.032M-179.283 535.099L-178.032 532.998M-110.468 413.831L-111.069 415.082M-198.451 559.163L-199.702 561.264M-55.1167 310.023L-54.3662 308.973M-56.4681 307.722L-57.0686 308.973M-188.591 535.149L-189.843 537.251M-203.506 559.163L-202.154 557.062M-198.551 545.055L-199.802 547.156M-193.546 535.149L-192.295 533.048M-203.556 545.055L-202.204 542.954M-132.389 416.283L-131.638 415.032M-133.74 413.782L-134.341 415.032M-68.7296 291.363L-68.1291 290.112M-70.0807 289.061L-70.6812 290.112" stroke="#6C6E74" stroke-width="0.12" stroke-linecap="round" stroke-linejoin="round"/>
<path d="M-537.567 77.9932L-538.168 77.543M-438.775 161.44L-439.075 161.14M-20.9342 561.864L-20.7843 562.014M294.06 605.539L290.306 604.038M9.24381 432.692H5.19004M13.5979 432.692H10.5952M14.1984 431.191H13.5979M15.0992 430.591H17.6015M3.03806 430.591H5.19004M14.1984 430.591H14.9492M17.8019 429.69H18.8527M9.24381 429.69H10.5952M19.003 429.39H17.7518M3.33833 427.889H5.19004M17.3514 427.889H15.3995M19.003 426.388H17.7518M17.7518 426.238H18.8026M9.19372 426.238H10.5451M10.0945 425.638H9.79426M15.0491 425.338H17.5514M2.98797 425.338H5.19004M14.1984 424.738H13.5979M-1.56616 422.236H-0.0648144M14.1984 422.236H13.5979M-2.91752 422.086H-15.9797M15.0992 421.636H17.6015M3.03806 421.636H5.19004M14.1984 421.486H14.9492M17.8019 420.735H18.8527M9.24381 420.735H10.5952M19.003 420.435H17.7518M3.33833 418.934H5.19004M17.3514 418.934H15.3995M19.003 417.433H17.7518M17.7518 417.283H18.8026M9.19372 417.283H10.5451M15.0491 416.383H17.5514M2.98797 416.383H5.19004M-110.568 416.383H-109.217M-133.69 416.383H-132.338M14.1984 415.782H13.5979M-132.338 413.982H-133.69M-109.217 413.982H-110.568M14.1984 409.479H13.5979M-88.6477 409.179H-87.2963M-155.61 409.179H-154.259M15.0992 408.879H17.6015M3.03806 408.879H5.19004M14.1984 408.729H14.9492M17.8019 407.978H18.8527M9.24381 407.978H10.5952M9.24381 407.828H6.44121M19.0531 407.678H17.8019M-154.259 406.927H-155.61M-87.2963 406.927H-88.6477M3.38843 406.177H5.19004M17.3514 406.177H15.3995M19.003 404.676H17.7518M6.64128 339.24L4.83967 340.14M3.03806 337.288L5.89077 335.938M0.0350715 328.283L3.93887 326.332M-102.21 382.164L-102.511 382.464M-62.2729 343.592L-62.5732 343.742M-102.511 382.514L-102.661 382.664M-62.6233 343.792L-62.7736 344.092" stroke="#6C6E74" stroke-width="0.12" stroke-linecap="round" stroke-linejoin="round"/>
<path d="M1.58687 324.281L0.986027 324.882M18.8528 289.312L19.3033 288.861M9.29396 298.017L9.8945 297.416M18.9029 280.306L19.3534 279.856M-4.96955 318.428L-4.81927 318.128M-143.699 555.761L-143.999 556.211M14.9994 276.304L15.1494 276.004M-143.399 548.657L-143.099 548.207M17.7018 268.45L17.8521 268.15M1.18641 293.164L0.886141 293.764M2.98802 285.209L3.13831 284.909M17.7018 259.395L17.8521 259.095M14.9994 263.447L15.1494 263.147M1.38649 286.11L1.83704 285.66M-55.0661 376.961L-54.3156 375.71M3.03812 276.204L3.1881 275.904M15.0492 254.442L15.1994 254.142M-56.4175 374.66L-57.018 375.71M-68.5788 395.521L-67.9783 394.27M-2.81727 281.557L-2.36702 280.657M-164.368 559.063L-165.72 561.164M-69.9302 393.22L-70.5307 394.27M-47.8594 354.949L-47.2588 353.698M3.03812 263.347L3.1881 263.047M-49.2107 352.647L-49.8113 353.698M-174.428 569.068L-175.679 571.17M-169.423 559.013L-168.172 556.912M-164.419 544.905L-165.77 547.006M-2.11685 263.497L-1.51631 262.447M2.98802 254.342L3.13831 254.042M-179.282 569.068L-178.031 566.967M-87.1964 408.929L-86.5958 407.878M-88.5474 406.627L-89.148 407.878M-169.323 544.905L-168.072 542.804M-47.8096 331.786L-47.2087 330.735M-49.1606 329.484L-49.7612 330.735M-188.491 569.068L-189.742 571.17" stroke="#6C6E74" stroke-width="0.12" stroke-linecap="round" stroke-linejoin="round"/>
<path d="M288.655 595.933L287.003 595.483M-597.173 477.367H-598.675M290.006 469.262H290.156M187.56 467.161H149.074M290.206 461.308H303.118M290.206 459.507H303.118M157.782 459.207H179.052M-4.56959 458.457H-17.6317M157.732 457.406H179.002M-4.61968 456.655H-17.6818M289.956 451.653H290.106M6.64084 449.551H-17.6818M148.974 449.551H187.56M-17.6317 445.349H6.69094M0.83555 398.973L-0.81608 399.423M-426.464 557.512L-423.762 556.261" stroke="#6C6E74" stroke-width="0.12" stroke-linecap="round" stroke-linejoin="round"/>
<path d="M272.59 641.409H272.74" stroke="#6C6E74" stroke-width="0.12" stroke-linecap="round" stroke-linejoin="round"/>
<path d="M3.08789 399.023L3.23806 399.323L3.3882 399.774" stroke="#6C6E74" stroke-width="0.12" stroke-linecap="round" stroke-linejoin="round"/>
<path d="M3.08789 399.023H3.23806" stroke="#6C6E74" stroke-width="0.12" stroke-linecap="round" stroke-linejoin="round"/>
<path d="M-13.2769 415.382H-13.1266M-11.1751 405.477H-11.0248M-12.5261 411.93H-12.3761M3.08846 285.609V285.76M10.5955 392.319V432.692M10.5955 252.141V292.363M10.1449 420.685V426.239M10.1449 407.928V417.234M10.1449 398.923V404.476M10.1449 280.357V285.91M10.1449 267.6V276.905M10.1449 258.595V264.148M9.84466 420.685V426.239M9.84466 407.928V417.234M9.84466 387.217V404.476M9.84466 323.731V360.952M9.84466 264.148V258.595M9.84466 276.905V267.6M9.84466 297.466V280.357M9.39441 333.186V351.647M9.24412 382.264V432.692M9.24412 302.619V252.191M9.24412 333.236V316.127M9.24412 368.806V351.697M6.99195 432.742V531.197M6.99195 368.806V382.314M6.99195 302.619V316.127M6.99195 161.54V252.191M6.99195 333.236V351.697M6.69169 239.284V235.081M6.69169 449.702V445.499M6.39142 302.619V277.105M6.39142 407.828V382.314M6.24144 339.39V328.434M6.24144 356.499V345.393M5.19034 400.024V432.742M5.19034 284.759V252.241M4.58981 336.738V316.177M4.58981 368.856V348.295M3.83898 340.19V344.843M3.53871 344.242V340.791M3.23845 340.791V344.242M2.93818 425.538V430.341M2.93818 416.583V421.386M2.93818 403.876V408.679M2.93818 399.223V399.674M2.93818 285.46V285.91M2.93818 276.455V281.107M2.93818 263.697V268.35M2.93818 254.692V259.182M2.93818 340.078V344.73M1.68701 344.73V347.432M1.68701 337.226V340.078M1.68701 390.956V399.061M1.68701 285.747V293.852M1.53703 360.489V364.692M1.53703 320.116V324.319M1.23676 293.251V286.198M1.23676 340.078V337.976M1.23676 346.832V344.73M1.23676 398.51V391.606M1.08647 293.301V286.247M1.08647 398.51V391.606M1.08647 340.128V337.976M1.08647 346.832V344.73M0.936489 359.889V365.142M0.936489 319.516V324.919M0.786202 390.956V399.061M0.786202 285.747V293.852M0.63622 339.928V337.426M0.63622 347.432V344.73M-0.865428 294.302V285.297M-0.865428 399.511V390.506M-0.865428 358.988V366.192M-0.865428 318.666V325.87M-1.61595 402.863V422.224M-1.61595 262.684V281.895M-2.0665 347.482V356.487M-2.0665 328.271V337.426M-2.21648 280.845V263.735M-2.21648 421.173V403.913M-2.51675 263.735V280.845M-2.51675 421.173V403.913M-2.66704 337.426V329.472M-2.66704 355.286V347.482M-2.96731 262.834V281.695M-2.96731 422.024V403.113M-3.11729 347.432V355.236M-3.11729 329.422V337.376M-3.71813 347.382V356.237M-3.71813 328.321V337.326M-4.0184 372.146H-3.86811M-4.0184 371.095H-3.86811M-4.0184 373.046H-3.86811M-4.0184 368.544H-3.86811M-4.0184 363.141H-3.86811M-4.0184 361.89H-3.86811M-4.0184 352.885H-3.86811M-4.0184 352.284H-3.86811M-4.0184 357.688H-3.86811M-4.0184 359.488H-3.86811M-4.0184 358.438H-3.86811M-4.61894 456.593V458.394M-4.61894 226.214V228.015M-5.06919 365.942H-4.9192M-10.0238 373.446V377.799M-10.0238 306.809V311.162M-10.9246 436.932V458.094M-10.9246 226.514V247.526M-16.48 129.86V133.162M-16.48 123.706V125.357M-17.3808 125.357V123.556M-17.3808 143.067V129.86M-17.6811 503.569V180.888H-17.8311M-17.8311 503.569V503.719" stroke="#6C6E74" stroke-width="0.12" stroke-linecap="round" stroke-linejoin="round"/>
<path d="M3.3882 254.192L3.23806 254.492L3.08789 254.792V256.143L3.23806 256.443L3.3882 256.743L3.23806 257.194L3.08789 257.494V257.794V258.094V258.394V258.694L3.23806 259.145L3.3882 259.445" stroke="#6C6E74" stroke-width="0.12" stroke-linecap="round" stroke-linejoin="round"/>
<path d="M3.3882 263.197L3.23806 263.497L3.08789 263.797V265.148L3.23806 265.448L3.3882 265.748L3.23806 266.199L3.08789 266.499V266.799V267.099V267.399V267.85L3.23806 268.15L3.3882 268.45" stroke="#6C6E74" stroke-width="0.12" stroke-linecap="round" stroke-linejoin="round"/>
<path d="M3.3882 275.954L3.23806 276.254L3.08789 276.554V277.905L3.23806 278.205L3.3882 278.506L3.23806 278.956L3.08789 279.256V279.556V279.856V280.156V280.607L3.23806 280.907L3.3882 281.207" stroke="#6C6E74" stroke-width="0.12" stroke-linecap="round" stroke-linejoin="round"/>
<path d="M3.3882 284.959L3.23806 285.259L3.08789 285.56" stroke="#6C6E74" stroke-width="0.12" stroke-linecap="round" stroke-linejoin="round"/>
<path d="M15.3999 254.192L15.2497 254.492V254.792L15.0996 255.092V255.393V255.693V255.993L15.2497 256.143V256.443L15.3999 256.743L15.2497 257.043V257.344L15.0996 257.644V257.944V258.244V258.544L15.2497 258.845V259.145L15.3999 259.445" stroke="#6C6E74" stroke-width="0.12" stroke-linecap="round" stroke-linejoin="round"/>
<path d="M15.3999 263.197L15.2497 263.497V263.797L15.0996 264.098V264.398V264.698V264.998L15.2497 265.298V265.448L15.3999 265.748L15.2497 266.199V266.349L15.0996 266.649V266.949V267.249V267.549L15.2497 267.85V268.15L15.3999 268.45" stroke="#6C6E74" stroke-width="0.12" stroke-linecap="round" stroke-linejoin="round"/>
<path d="M15.3999 275.954L15.2497 276.254V276.554L15.0996 276.855V277.155V277.455V277.755L15.2497 277.905V278.205L15.3999 278.506L15.2497 278.806V279.106L15.0996 279.406V279.706V280.006V280.307L15.2497 280.607V280.907L15.3999 281.207" stroke="#6C6E74" stroke-width="0.12" stroke-linecap="round" stroke-linejoin="round"/>
<path d="M15.3999 284.959L15.2497 285.259V285.56L15.0996 285.86V286.16V286.46V286.76L15.2497 287.06V287.21L15.3999 287.661L15.2497 287.961V288.261L15.0996 288.411V288.711V289.011V289.312L15.2497 289.612V289.912L15.3999 290.212" stroke="#6C6E74" stroke-width="0.12" stroke-linecap="round" stroke-linejoin="round"/>
<path d="M-22.8866 499.317H-495.679M-421.359 548.244L-419.708 547.794M5.03933 400.511L0.0346558 402.763M6.04033 389.405L3.18763 390.906M9.1933 361.49L9.79384 360.889M1.5363 364.641L0.935767 365.092M9.1933 351.734L9.79384 351.284M9.34359 347.982L9.79384 347.382M-1.16642 366.592L-0.86615 366.142M-3.71885 356.237L-3.11801 355.186M2.88736 344.68L3.18763 344.08M1.08575 346.781L0.635498 347.382M3.4879 340.628L3.78816 340.027M1.28583 337.926L1.73638 337.176M-2.61767 329.372L-2.01713 328.121M-1.11632 326.17L-0.816054 325.72M17.6512 290.15L17.8015 289.849M17.6512 281.095L17.8015 280.794M14.9488 285.147L15.0988 284.847" stroke="#6C6E74" stroke-width="0.12" stroke-linecap="round" stroke-linejoin="round"/>
<path d="M272.59 641.559H272.74" stroke="#6C6E74" stroke-width="0.12" stroke-linecap="round" stroke-linejoin="round"/>
<path d="M272.439 641.409H272.59" stroke="#6C6E74" stroke-width="0.12" stroke-linecap="round" stroke-linejoin="round"/>
<path d="M19.3036 426.638V429.14M19.3036 417.433V420.135M19.3036 404.676V407.378M19.3036 395.671V398.373M19.3036 286.26V288.761M19.3036 277.205V279.706M19.3036 264.398V266.899M19.3036 255.343V257.844M18.853 425.938V429.39M18.853 416.883V420.335M18.853 404.076V407.528M18.853 394.921V398.523M18.853 285.51V288.962M18.853 276.455V279.906M18.853 263.647V267.099M18.853 254.592V258.044M17.8022 424.938V429.74M17.8022 415.983V420.785M17.8022 403.275V408.078M17.8022 394.321V399.123M17.8022 284.909V289.562M17.8022 275.904V280.557M17.8022 263.147V267.799M17.8022 254.142V259.182M15.8503 430.528V531.084M15.8503 421.523V425.275M15.8503 408.766V416.27M15.8503 399.761V403.513M15.8503 290.2V394.508M15.8503 281.195V284.947M15.8503 268.437V275.942M15.8503 259.432V263.184M15.8503 161.427V254.179M15.8503 133.212V130.81M14.9495 425.275V430.528M14.9495 416.27V421.373M14.9495 403.513V408.616M14.9495 394.508V399.611M14.9495 284.947V290.2M14.9495 275.942V281.195M14.9495 263.184V268.437M14.9495 254.179V259.432M14.7993 130.81V133.212M14.1987 260.033V253.579M14.1987 269.038V262.584M14.1987 281.795V275.341M14.1987 290.8V284.347M14.1987 400.361V393.908M14.1987 409.367V402.913M14.1987 422.124V415.67M14.1987 431.129V424.675M13.5982 392.257V432.629M13.5982 252.078V292.301M-368.509 287.048L-367.608 288.549M-438.324 162.028V161.878M-365.056 287.048L-365.956 285.547M-436.973 159.226V159.076M-202.153 561.302L-203.505 559.2M-192.244 571.357L-193.495 569.256M-199.751 557.099L-198.5 559.2M-428.215 159.226L-428.365 159.076M-202.103 547.194L-203.455 545.093M-189.792 567.155L-188.541 569.256M-199.651 542.991L-198.4 545.093M-549.979 149.771L-550.129 149.621M-512.143 324.719L-511.693 325.019" stroke="#6C6E74" stroke-width="0.12" stroke-linecap="round" stroke-linejoin="round"/>
<path d="M3.3882 403.526L3.23806 403.826L3.08789 404.126V405.477L3.23806 405.777L3.3882 406.077L3.23806 406.527L3.08789 406.828V407.128V407.428V407.728V408.028L3.23806 408.328L3.3882 408.779" stroke="#6C6E74" stroke-width="0.12" stroke-linecap="round" stroke-linejoin="round"/>
<path d="M3.3882 416.283L3.23806 416.583L3.08789 416.883V418.234L3.23806 418.534L3.3882 418.834L3.23806 419.135L3.08789 419.585V419.885V420.185V420.485V420.785L3.23806 421.086L3.3882 421.536" stroke="#6C6E74" stroke-width="0.12" stroke-linecap="round" stroke-linejoin="round"/>
<path d="M3.3882 425.288L3.23806 425.588L3.08789 425.888V427.239L3.23806 427.539L3.3882 427.839L3.23806 428.29L3.08789 428.59V428.89V429.19V429.49V429.79L3.23806 430.241L3.3882 430.541" stroke="#6C6E74" stroke-width="0.12" stroke-linecap="round" stroke-linejoin="round"/>
<path d="M15.3999 394.521L15.2497 394.821V395.121L15.0996 395.421V395.571V395.871V396.172L15.2497 396.472V396.772L15.3999 397.072L15.2497 397.372V397.673L15.0996 397.973V398.273V398.573V398.873L15.2497 399.173V399.474L15.3999 399.774" stroke="#6C6E74" stroke-width="0.12" stroke-linecap="round" stroke-linejoin="round"/>
<path d="M15.3999 403.526L15.2497 403.826V404.126L15.0996 404.426V404.726V404.876V405.177L15.2497 405.477V405.777L15.3999 406.077L15.2497 406.377V406.677L15.0996 406.978V407.278V407.578V407.878L15.2497 408.178V408.478L15.3999 408.779" stroke="#6C6E74" stroke-width="0.12" stroke-linecap="round" stroke-linejoin="round"/>
<path d="M15.3999 416.283L15.2497 416.583V416.883L15.0996 417.183V417.334V417.634V417.934L15.2497 418.234V418.534L15.3999 418.834L15.2497 419.135V419.435L15.0996 419.735V420.035V420.335V420.635L15.2497 420.936V421.236L15.3999 421.536" stroke="#6C6E74" stroke-width="0.12" stroke-linecap="round" stroke-linejoin="round"/>
<path d="M15.3999 425.288L15.2497 425.588V425.888L15.0996 426.188V426.489V426.639V426.939L15.2497 427.239V427.539L15.3999 427.839L15.2497 428.139V428.44L15.0996 428.74V429.04V429.34V429.64L15.2497 429.94V430.241L15.3999 430.541" stroke="#6C6E74" stroke-width="0.12" stroke-linecap="round" stroke-linejoin="round"/>
<path d="M195.868 532.148H199.472M-43.7556 532.148H80.1102M-560.388 531.998H-558.287M-546.726 531.998H-549.078M-36.4987 531.097H-43.7055M73.1039 531.097H-34.8471M76.507 531.097H75.4559M-542.622 530.197H-546.225M-546.225 529.896H-542.922M-549.378 528.846H-546.375M-560.639 528.846H-558.236M-558.236 528.096H-557.486M-555.083 522.392H-550.429M-596.622 518.077H-599.024M-555.233 518.077H-557.636M18.7531 429.678L19.2034 429.228M18.7531 420.673L19.2034 420.223M18.7531 407.916L19.2034 407.466M-136.192 560.401L-135.591 559.951M18.7531 398.911L19.2034 398.461M9.19403 403.263L9.79457 402.663M17.6019 421.573L17.7521 421.273M14.8994 425.475L15.0494 425.326M14.8994 416.471L15.0494 416.32M17.5518 408.816L17.702 408.516M2.8383 425.475L2.98828 425.326M17.5518 399.811L17.702 399.511M14.8493 403.713L14.9996 403.563M2.8383 416.471L2.98828 416.32M14.8493 394.708L14.9996 394.558M-3.0174 422.074L-2.56684 421.173M2.8383 403.763L2.98828 403.613M1.03638 398.51L0.736113 399.111M-2.26657 403.913L-1.66603 402.863M1.18667 391.606L1.63692 391.006M-115.472 632.191L-114.121 629.49" stroke="#6C6E74" stroke-width="0.12" stroke-linecap="round" stroke-linejoin="round"/>
<path d="M235.955 532.148H231.451" stroke="#6C6E74" stroke-width="0.12" stroke-linecap="round" stroke-linejoin="round"/>
<path d="M199.471 546.556H231.451M231.451 546.406H231.601M199.321 546.406H199.471M-542.672 545.956H-546.276M235.955 545.956H232.903M-546.326 545.655H-543.023M-549.479 544.605H-546.476M-560.739 544.605H-558.337M-558.337 543.854H-557.586M231.401 543.104H289.956M-168.272 542.954H-165.87M-202.154 542.954H-199.752M199.471 542.954H231.451M-36.5494 542.653H-34.8476M-593.67 540.703H-560.339M-426.864 539.452H-429.116M-136.042 539.452H-138.294M-560.339 539.002H-593.67M-34.8476 538.852H-33.046M-189.793 537.201H-192.195M-175.679 537.201H-178.082M-558.237 535.85H-557.486M-549.379 535.1H-546.376M-560.639 535.1H-558.237M-550.43 535.1H-549.529M-546.226 534.049H-542.923M-542.622 533.749H-546.226M-178.082 532.998H-175.679M-192.195 532.998H-189.793M-21.0347 532.098H-24.1876" stroke="#6C6E74" stroke-width="0.12" stroke-linecap="round" stroke-linejoin="round"/>
<path d="M231.602 546.556H290.006" stroke="#6C6E74" stroke-width="0.12" stroke-linecap="round" stroke-linejoin="round"/>
<path d="M-20.9339 549.557H-20.7839H76.3568M-542.672 549.557H-546.275M199.322 549.557H272.59M-422.109 548.207H-423.46M-141.947 548.207H-143.198M-560.438 547.757H-558.336M-546.775 547.757H-549.078M-154.659 547.757H-145.651M-407.045 547.757H-419.707M-199.751 547.156H-202.153M-165.869 547.156H-168.272M231.702 546.706H235.155" stroke="#6C6E74" stroke-width="0.12" stroke-linecap="round" stroke-linejoin="round"/>
<path d="M76.507 549.557H-20.6338" stroke="#6C6E74" stroke-width="0.12" stroke-linecap="round" stroke-linejoin="round"/>
<path d="M-183.987 552.109H-214.316M-558.287 551.659H-557.536M-549.429 550.908H-546.426M-560.689 550.908H-558.287M-550.48 550.908H-549.579M199.321 550.008H76.5063M-546.276 549.858H-542.973M199.321 549.858H76.5063M199.321 549.708H76.5063M272.44 549.557H272.74" stroke="#6C6E74" stroke-width="0.12" stroke-linecap="round" stroke-linejoin="round"/>
<path d="M75.4556 161.44V531.097M73.0534 532.148V161.44M58.3397 123.769V133.224M57.5888 124.969V128.121M53.8353 123.769V133.224M-365.056 397.522L-365.957 396.021M-117.425 635.556L-117.725 635.255M-512.294 361.652L-511.843 361.802M-549.228 331.635L-549.679 331.335M-521.903 347.244L-521.302 347.544M-541.871 332.236L-542.472 331.785M-141.447 556.311L-138.945 557.562" stroke="#6C6E74" stroke-width="0.12" stroke-linecap="round" stroke-linejoin="round"/>
<path d="M76.3564 549.558V549.407" stroke="#6C6E74" stroke-width="0.12" stroke-linecap="round" stroke-linejoin="round"/>
<path d="M76.3564 531.097V549.558" stroke="#6C6E74" stroke-width="0.12" stroke-linecap="round" stroke-linejoin="round"/>
<path d="M76.5068 550.158V150.784" stroke="#6C6E74" stroke-width="0.12" stroke-linecap="round" stroke-linejoin="round"/>
<path d="M17.7012 430.528L17.8515 430.228M80.1595 152.573V532.135" stroke="#6C6E74" stroke-width="0.12" stroke-linecap="round" stroke-linejoin="round"/>
<path d="M-133.089 568.768H-129.636M-178.131 567.117H-175.729M-192.245 567.117H-189.842M237.307 566.817H241.061M221.242 566.817H224.845M-426.914 564.866H-429.166M-136.092 564.866H-138.344M-56.5178 564.266H-54.4156M-557.536 561.852H-555.134M-598.925 561.852H-596.623M-199.802 561.251H-202.204M-165.92 561.251H-168.322M-550.279 559.15H-429.867M-430.467 557.349H-555.234M-430.317 557.349H-430.167M-168.322 557.049H-165.92M-202.204 557.049H-199.802M-154.76 556.599H-145.751M-407.145 556.599H-419.707M-143.199 556.148H-141.948M-422.109 556.148H-423.461M-17.7816 503.919H-17.6313M-143.999 556.148L-145.651 556.599M-138.895 546.843L-141.397 548.094M-129.236 568.956H-129.086" stroke="#6C6E74" stroke-width="0.12" stroke-linecap="round" stroke-linejoin="round"/>
<path d="M-154.71 581.376H-159.965M210.882 581.075H207.279M255.023 581.075H251.27M-96.9058 577.623H-97.0558M-401.841 577.023H-159.965M251.27 574.772H255.023M207.279 574.772H210.882M224.845 573.121H221.242M241.06 573.121H237.307M-189.842 571.32H-192.245M-175.729 571.32H-178.132" stroke="#6C6E74" stroke-width="0.12" stroke-linecap="round" stroke-linejoin="round"/>
<path d="M-96.9057 577.623H-96.7554M259.377 588.729H262.931M199.121 588.729H202.875M297.013 587.229H294.21M-154.86 581.676H-406.945" stroke="#6C6E74" stroke-width="0.12" stroke-linecap="round" stroke-linejoin="round"/>
<path d="M-96.7552 577.623H-96.9055L-79.489 574.021M-43.6056 566.517L-20.9342 561.864M-65.5261 571.019L-61.1721 570.119M-103.812 635.555L-103.361 635.255M-33.0959 538.951L-27.991 533.849M-20.7843 534.599L-48.1099 565.366M88.0675 130.873V133.274M87.0164 133.274V130.873M85.9656 130.873V133.274M-436.223 159.689H-436.072" stroke="#6C6E74" stroke-width="0.12" stroke-linecap="round" stroke-linejoin="round"/>
<path d="M159.084 130.823V133.224M158.033 133.224V130.823M157.732 457.406V459.207M157.732 225.526V227.177M148.974 235.131V217.621M148.974 467.211V449.702M129.156 123.869V133.324M128.405 125.07V128.221M124.651 123.869V133.324M-440.477 397.622L-439.576 399.123M-437.074 397.622L-437.974 396.121M-560.939 155.687L-560.789 155.987M-560.939 139.728L-560.789 140.178M-519.351 361.552L-519.201 361.852M-526.407 347.294L-526.107 347.594M-449.235 503.932H-449.085M-449.235 503.782H-449.085M-421.459 556.161L-419.807 556.611M-107.215 628.051H-114.122M-113.671 627.751H-107.816M-107.666 627.601H-113.671M-107.415 627.301H-114.022M237.157 626.851H240.91M221.092 626.851H224.695M210.732 625.2H207.128M254.873 625.2H251.12M251.12 618.946H254.873M207.128 618.946H210.732M296.912 612.793H294.21M202.875 611.292H199.121M262.931 611.292H259.328M259.328 605.038H262.931M199.121 605.038H202.875M286.953 604.588H272.69M290.206 604.138H289.305M-97.156 603.387H-100.759M298.364 600.086H312.477M197.92 600.086H264.182M-97.0558 596.784H-100.659M289.405 596.033H290.306M287.003 595.583H272.74M202.925 595.133H199.171M262.981 595.133H259.377" stroke="#6C6E74" stroke-width="0.12" stroke-linecap="round" stroke-linejoin="round"/>
<path d="M231.602 138.327V138.177" stroke="#6C6E74" stroke-width="0.12" stroke-linecap="round" stroke-linejoin="round"/>
<path d="M195.868 532.148V152.585M195.718 123.619V143.13M194.967 123.769V133.224M194.967 549.858V549.708M187.61 449.652V467.162M187.61 217.572V235.081M179.052 227.127V225.476M179.052 459.157V457.356M-549.729 168.444L-551.831 162.891M-550.48 162.441V162.291M-549.729 163.541L-550.179 162.291M-514.046 359.238V359.088M-515.697 325.62V325.47M-514.046 322.468V322.318M-500.083 503.919H-499.932M-423.811 548.044L-426.514 546.794M-550.229 522.33L-551.881 521.729M272.54 641.647H-96.9057M272.59 641.497H-96.9057M272.74 641.347H272.89M-97.0557 641.347H-96.9057M-117.475 635.493H-103.812M-122.429 635.193H-98.6572M224.895 633.092H221.292M241.11 633.092H237.357M-122.379 632.342H-98.6071M-113.921 627.989L-113.471 627.689M-107.465 627.539L-107.165 627.239" stroke="#6C6E74" stroke-width="0.12" stroke-linecap="round" stroke-linejoin="round"/>
<path d="M199.321 143.13V550.008V550.158M199.321 123.769H199.471M199.171 123.769V123.619" stroke="#6C6E74" stroke-width="0.12" stroke-linecap="round" stroke-linejoin="round"/>
<path d="M199.472 546.556V532.148" stroke="#6C6E74" stroke-width="0.12" stroke-linecap="round" stroke-linejoin="round"/>
<path d="M199.472 152.585V123.919" stroke="#6C6E74" stroke-width="0.12" stroke-linecap="round" stroke-linejoin="round"/>
<path d="M231.452 546.556V542.954M213.435 133.675V138.027M212.384 133.675V138.027M203.225 138.027H203.375M202.775 138.027H202.925M199.472 152.585V532.148" stroke="#6C6E74" stroke-width="0.12" stroke-linecap="round" stroke-linejoin="round"/>
<path d="M231.451 138.027V542.954" stroke="#6C6E74" stroke-width="0.12" stroke-linecap="round" stroke-linejoin="round"/>
<path d="M231.602 546.406V532.148" stroke="#6C6E74" stroke-width="0.12" stroke-linecap="round" stroke-linejoin="round"/>
<path d="M231.602 152.585V138.027" stroke="#6C6E74" stroke-width="0.12" stroke-linecap="round" stroke-linejoin="round"/>
<path d="M231.602 546.406V546.556V532.148" stroke="#6C6E74" stroke-width="0.12" stroke-linecap="round" stroke-linejoin="round"/>
<path d="M-546.426 528.846L-546.276 529.146M-542.522 546.105L-542.973 545.655M-542.522 530.347L-542.973 529.896M288.655 604.038L287.003 604.488M290.306 595.933L294.06 594.433M263.131 533.148V155.687M235.955 152.535V532.098M235.955 138.727V137.977M235.955 546.506V545.905M235.205 137.977H235.355M235.205 546.656V546.506M235.055 532.098V152.585M232.352 142.579V139.428M232.352 545.255V542.253M231.601 152.635V138.077" stroke="#6C6E74" stroke-width="0.12" stroke-linecap="round" stroke-linejoin="round"/>
<path d="M297.063 608.24L297.664 607.64M256.826 622.048L255.024 625.2M264.783 608.09L262.981 611.242M257.576 608.09L259.378 604.938M249.468 622.048L251.27 618.896M242.862 630.003L241.061 633.154M264.833 591.881L263.031 595.033M257.626 591.881L259.428 588.729M235.556 630.003L237.357 626.851M226.697 630.003L224.896 633.154M256.875 577.923L255.074 581.075M249.519 577.923L251.32 574.772M219.49 630.003L221.292 626.851M212.734 622.048L210.932 625.2M242.912 569.969L241.111 573.121M-560.789 550.608L-560.639 550.908M-560.789 534.849L-560.639 535.149M-549.529 550.608L-549.378 550.908M-546.376 544.655L-546.225 544.955M-549.529 534.949L-549.378 535.249M235.556 570.069L237.357 566.917M205.528 622.148L207.329 618.996M204.827 608.19L203.025 611.342M226.797 570.069L224.996 573.221M219.591 570.069L221.392 566.917M197.52 608.19L199.321 605.039M204.877 591.981L203.075 595.133M212.834 578.023L211.033 581.175M205.627 578.023L207.429 574.872M197.37 591.869L199.172 588.717M303.019 229.266V227.615M303.019 461.296V459.494M297.613 607.628V592.319M297.013 612.73V587.216M294.16 612.73V587.216M290.106 451.69V469.2M290.106 219.61V237.12M289.956 546.443V138.027M289.356 604.038V595.933L289.055 596.534V603.438M288.905 596.534V603.438L288.605 604.038V595.933M286.953 604.488V595.483M272.69 641.409V549.557H272.54M272.54 641.559V641.709M272.39 549.557V549.708" stroke="#6C6E74" stroke-width="0.12" stroke-linecap="round" stroke-linejoin="round"/>
<path d="M-1.56641 129.922L-0.365294 129.622L0.385415 128.722L0.685684 127.671L0.385415 126.62L-0.365294 125.72L-1.56641 125.42" stroke="#6C6E74" stroke-width="0.12" stroke-linecap="round" stroke-linejoin="round"/>
<path d="M128.455 124.969L128.305 124.669L127.854 124.369" stroke="#6C6E74" stroke-width="0.12" stroke-linecap="round" stroke-linejoin="round"/>
<path d="M57.5888 124.969L57.4387 124.669L56.9883 124.369" stroke="#6C6E74" stroke-width="0.12" stroke-linecap="round" stroke-linejoin="round"/>
<path d="M232.953 138.777L232.503 138.927L232.353 139.378" stroke="#6C6E74" stroke-width="0.12" stroke-linecap="round" stroke-linejoin="round"/>
<path d="M231.751 138.027H231.601L231.451 138.177" stroke="#6C6E74" stroke-width="0.12" stroke-linecap="round" stroke-linejoin="round"/>
<path d="M199.471 123.919L199.321 123.619H199.171" stroke="#6C6E74" stroke-width="0.12" stroke-linecap="round" stroke-linejoin="round"/>
<path d="M0.0851312 356.549L-0.215137 356.399M-0.215137 328.183H0.0851312M-3.81836 345.293L-1.11594 344.993M-1.11594 339.74L-3.81836 339.44M5.19 284.509L5.03971 284.209M5.03971 260.195L5.19 259.895M3.08812 285.71H3.2381M3.2381 293.814H3.08812M6.09081 284.209L6.39108 283.758M6.39108 295.615L6.09081 295.165M0.0851312 281.808H-0.0648503M-0.0648503 262.597L0.0851312 262.447" stroke="#6C6E74" stroke-width="0.12" stroke-linecap="round" stroke-linejoin="round"/>
<path d="M-508.29 361.952L-508.891 361.802M6.99139 345.893L6.69112 345.593M6.69112 339.139L6.99139 338.689M4.88951 344.693H4.58924M4.58924 340.04H4.88951M2.78763 337.189H3.0879M3.0879 347.544L2.78763 347.394M5.9406 335.838L6.24087 335.387M6.24087 349.345L5.9406 348.895M4.58924 359.251L3.9887 358.35M3.9887 326.232L4.58924 325.482M-1.11617 339.74L1.38617 340.04M1.38617 344.693L-1.11617 344.993" stroke="#6C6E74" stroke-width="0.12" stroke-linecap="round" stroke-linejoin="round"/>
<path d="M5.03948 400.511L5.18977 400.211M3.08789 390.906H3.23787M3.23787 399.011H3.08789M6.09058 389.405L6.39084 388.955" stroke="#6C6E74" stroke-width="0.12" stroke-linecap="round" stroke-linejoin="round"/>
<path d="M5.18971 424.838L5.03943 424.537M0.0347471 422.136H-0.115234M-0.115234 402.775H0.0347471M6.2906 400.824L5.99033 400.374" stroke="#6C6E74" stroke-width="0.12" stroke-linecap="round" stroke-linejoin="round"/>
<path d="M239.109 572.821L240.31 572.52L241.211 571.92L241.811 571.02L241.961 569.969L241.811 568.768L241.211 567.868L240.31 567.268L239.109 567.117L238.058 567.268L237.157 567.868L236.556 568.768L236.406 569.969L236.556 571.02L237.157 571.92L238.058 572.52L239.109 572.821Z" stroke="#6C6E74" stroke-width="0.12" stroke-linecap="round" stroke-linejoin="round"/>
<path d="M223.043 572.821L224.094 572.52L225.145 571.92L225.746 571.02L225.896 569.969L225.746 568.768L225.145 567.868L224.094 567.268L223.043 567.117L221.992 567.268L221.091 567.868L220.491 568.768L220.19 569.969L220.491 571.02L221.091 571.92L221.992 572.52L223.043 572.821Z" stroke="#6C6E74" stroke-width="0.12" stroke-linecap="round" stroke-linejoin="round"/>
<path d="M209.08 580.775L210.131 580.625L211.182 580.025L211.783 579.124L211.933 577.923L211.783 576.873L211.182 575.972L210.131 575.372L209.08 575.072L208.029 575.372L207.128 575.972L206.528 576.873L206.228 577.923L206.528 579.124L207.128 580.025L208.029 580.625L209.08 580.775Z" stroke="#6C6E74" stroke-width="0.12" stroke-linecap="round" stroke-linejoin="round"/>
<path d="M200.973 594.733L202.174 594.583L203.075 593.982L203.676 593.082L203.826 591.881L203.676 590.831L203.075 589.93L202.174 589.33L200.973 589.03L199.922 589.33L199.021 589.93L198.421 590.831L198.271 591.881L198.421 593.082L199.021 593.982L199.922 594.583L200.973 594.733Z" stroke="#6C6E74" stroke-width="0.12" stroke-linecap="round" stroke-linejoin="round"/>
<path d="M197.519 548.657L198.12 548.507L198.27 548.057L198.12 547.456L197.519 547.306L197.069 547.456L196.919 548.057L197.069 548.507L197.519 548.657Z" stroke="#6C6E74" stroke-width="0.12" stroke-linecap="round" stroke-linejoin="round"/>
<path d="M232.353 545.205L232.503 545.655L232.953 545.956" stroke="#6C6E74" stroke-width="0.12" stroke-linecap="round" stroke-linejoin="round"/>
<path d="M231.451 546.406L231.601 546.706H231.751" stroke="#6C6E74" stroke-width="0.12" stroke-linecap="round" stroke-linejoin="round"/>
<path d="M261.179 594.733L262.23 594.583L263.281 593.982L263.881 593.082L264.032 591.881L263.881 590.831L263.281 589.93L262.23 589.33L261.179 589.03L260.128 589.33L259.227 589.93L258.626 590.831L258.326 591.881L258.626 593.082L259.227 593.982L260.128 594.583L261.179 594.733Z" stroke="#6C6E74" stroke-width="0.12" stroke-linecap="round" stroke-linejoin="round"/>
<path d="M253.072 580.775L254.273 580.625L255.174 580.025L255.774 579.124L255.924 577.923L255.774 576.873L255.174 575.972L254.273 575.372L253.072 575.072L252.021 575.372L251.12 575.972L250.519 576.873L250.369 577.923L250.519 579.124L251.12 580.025L252.021 580.625L253.072 580.775Z" stroke="#6C6E74" stroke-width="0.12" stroke-linecap="round" stroke-linejoin="round"/>
<path d="M272.74 549.858L272.59 549.708" stroke="#6C6E74" stroke-width="0.12" stroke-linecap="round" stroke-linejoin="round"/>
<path d="M231.152 635.556L235.806 635.255L240.31 634.355L244.664 632.854L248.868 630.753L252.772 628.202L256.225 625.05L259.378 621.598L261.93 617.696L263.882 613.643L265.384 609.141L266.284 604.638L266.585 599.986L266.284 595.333L265.384 590.831L263.882 586.478L261.93 582.276L259.378 578.374L256.225 574.922L252.772 571.77L248.868 569.218L244.664 567.117L240.31 565.767L235.806 564.716L231.152 564.416L226.497 564.716L221.993 565.767L217.489 567.117L213.285 569.218L209.531 571.77L205.928 574.922L202.925 578.374L200.373 582.276L198.271 586.478L196.769 590.831L195.869 595.333L195.568 599.986L195.869 604.638L196.769 609.141L198.271 613.643L200.373 617.696L202.925 621.598L205.928 625.05L209.531 628.202L213.285 630.753L217.489 632.854L221.993 634.355L226.497 635.255L231.152 635.556Z" stroke="#6C6E74" stroke-width="0.12" stroke-linecap="round" stroke-linejoin="round"/>
<path d="M209.08 624.9L210.131 624.6L211.182 623.999L211.783 623.099L211.933 622.048L211.783 620.847L211.182 619.947L210.131 619.347L209.08 619.197L208.029 619.347L207.128 619.947L206.528 620.847L206.228 622.048L206.528 623.099L207.128 623.999L208.029 624.6L209.08 624.9Z" stroke="#6C6E74" stroke-width="0.12" stroke-linecap="round" stroke-linejoin="round"/>
<path d="M200.973 610.942L202.174 610.642L203.075 610.041L203.676 609.141L203.826 608.09L203.676 607.04L203.075 605.989L202.174 605.389L200.973 605.239L199.922 605.389L199.021 605.989L198.421 607.04L198.271 608.09L198.421 609.141L199.021 610.041L199.922 610.642L200.973 610.942Z" stroke="#6C6E74" stroke-width="0.12" stroke-linecap="round" stroke-linejoin="round"/>
<path d="M239.109 632.854L240.31 632.704L241.211 632.104L241.811 631.203L241.961 630.003L241.811 628.952L241.211 628.052L240.31 627.451L239.109 627.151L238.058 627.451L237.157 628.052L236.556 628.952L236.406 630.003L236.556 631.203L237.157 632.104L238.058 632.704L239.109 632.854Z" stroke="#6C6E74" stroke-width="0.12" stroke-linecap="round" stroke-linejoin="round"/>
<path d="M223.043 632.854L224.094 632.704L225.145 632.104L225.746 631.203L225.896 630.003L225.746 628.952L225.145 628.052L224.094 627.451L223.043 627.151L221.992 627.451L221.091 628.052L220.491 628.952L220.19 630.003L220.491 631.203L221.091 632.104L221.992 632.704L223.043 632.854Z" stroke="#6C6E74" stroke-width="0.12" stroke-linecap="round" stroke-linejoin="round"/>
<path d="M261.179 610.942L262.23 610.642L263.281 610.041L263.881 609.141L264.032 608.09L263.881 607.04L263.281 605.989L262.23 605.389L261.179 605.239L260.128 605.389L259.227 605.989L258.626 607.04L258.326 608.09L258.626 609.141L259.227 610.041L260.128 610.642L261.179 610.942Z" stroke="#6C6E74" stroke-width="0.12" stroke-linecap="round" stroke-linejoin="round"/>
<path d="M253.072 624.9L254.273 624.6L255.174 623.999L255.774 623.099L255.924 622.048L255.774 620.847L255.174 619.947L254.273 619.347L253.072 619.197L252.021 619.347L251.12 619.947L250.519 620.847L250.369 622.048L250.519 623.099L251.12 623.999L252.021 624.6L253.072 624.9Z" stroke="#6C6E74" stroke-width="0.12" stroke-linecap="round" stroke-linejoin="round"/>
<path d="M290.307 604.038H290.457M290.307 595.933H290.457" stroke="#6C6E74" stroke-width="0.12" stroke-linecap="round" stroke-linejoin="round"/>
<path d="M294.06 594.433L294.21 594.283V594.133" stroke="#6C6E74" stroke-width="0.12" stroke-linecap="round" stroke-linejoin="round"/>
<path d="M294.21 605.839V605.689L294.06 605.539" stroke="#6C6E74" stroke-width="0.12" stroke-linecap="round" stroke-linejoin="round"/>
<path d="M272.439 641.559H272.59L272.74 641.259" stroke="#6C6E74" stroke-width="0.12" stroke-linecap="round" stroke-linejoin="round"/>
<path d="M272.59 641.409H272.74" stroke="#6C6E74" stroke-width="0.12" stroke-linecap="round" stroke-linejoin="round"/>
<path d="M14.4985 254.192H14.1982H14.949" stroke="#6C6E74" stroke-width="0.12" stroke-linecap="round" stroke-linejoin="round"/>
<path d="M14.4985 284.959H14.1982H14.949" stroke="#6C6E74" stroke-width="0.12" stroke-linecap="round" stroke-linejoin="round"/>
<path d="M14.4985 263.197H14.1982H14.949" stroke="#6C6E74" stroke-width="0.12" stroke-linecap="round" stroke-linejoin="round"/>
<path d="M14.4985 275.954H14.1982H14.949" stroke="#6C6E74" stroke-width="0.12" stroke-linecap="round" stroke-linejoin="round"/>
<path d="M14.4985 394.521H14.1982H14.949" stroke="#6C6E74" stroke-width="0.12" stroke-linecap="round" stroke-linejoin="round"/>
<path d="M14.4985 425.288H14.1982H14.949" stroke="#6C6E74" stroke-width="0.12" stroke-linecap="round" stroke-linejoin="round"/>
<path d="M14.4985 416.283H14.1982H14.949" stroke="#6C6E74" stroke-width="0.12" stroke-linecap="round" stroke-linejoin="round"/>
<path d="M14.4985 403.526H14.1982H14.949" stroke="#6C6E74" stroke-width="0.12" stroke-linecap="round" stroke-linejoin="round"/>
</svg>
