<svg width="29" height="28" viewBox="0 0 29 28" fill="none" xmlns="http://www.w3.org/2000/svg">
<path fill-rule="evenodd" clip-rule="evenodd" d="M14.8662 0C7.13471 0 0.866211 6.2685 0.866211 14C0.866211 21.7315 7.13471 28 14.8662 28C22.5977 28 28.8662 21.7315 28.8662 14C28.8662 6.2685 22.5977 0 14.8662 0ZM21.3552 9.52117C21.1452 11.7343 20.2329 17.1068 19.7697 19.586C19.5737 20.636 19.1864 20.9872 18.813 21.021C17.9999 21.0957 17.3827 20.4832 16.5952 19.9675C15.3632 19.1602 14.6667 18.6573 13.4709 17.8687C12.0884 16.9575 12.9844 16.457 13.7719 15.6392C13.9784 15.4245 17.56 12.166 17.63 11.8708C17.6382 11.8335 17.6475 11.6958 17.5647 11.6235C17.4819 11.5512 17.3617 11.5757 17.2754 11.5955C17.1517 11.6235 15.1835 12.9243 11.3697 15.498C10.8109 15.8818 10.3045 16.0685 9.85071 16.0592C9.35138 16.0487 8.39004 15.7768 7.67488 15.5435C6.79871 15.2588 6.10104 15.1072 6.16171 14.6242C6.19321 14.3722 6.53971 14.1143 7.20238 13.8507C11.2834 12.0727 14.0052 10.9002 15.3667 10.3332C19.2552 8.71617 20.0625 8.435 20.5899 8.42567C21.2502 8.41633 21.4089 8.96117 21.3552 9.52117Z" fill="url(#paint0_linear_200_12470)"/>
<defs>
<linearGradient id="paint0_linear_200_12470" x1="14.8662" y1="0" x2="14.8662" y2="28" gradientUnits="userSpaceOnUse">
<stop stop-color="#67BEF6"/>
<stop offset="1" stop-color="#398ECB"/>
</linearGradient>
</defs>
</svg>
