<svg width="28" height="28" viewBox="0 0 28 28" fill="none" xmlns="http://www.w3.org/2000/svg">
<path fill-rule="evenodd" clip-rule="evenodd" d="M23.807 4.06933C21.1867 1.44667 17.703 0.00116667 13.9918 0C6.34433 0 0.120167 6.223 0.116667 13.874C0.1155 16.3193 0.754833 18.7063 1.96933 20.811L0 28L7.35467 26.0703C9.38117 27.1763 11.6632 27.7585 13.9848 27.7597H13.9907C21.637 27.7597 27.8623 21.5355 27.8658 13.8845C27.8682 10.178 26.4262 6.69083 23.807 4.06933ZM13.9918 25.4158H13.9872C11.9175 25.4158 9.88867 24.8593 8.11767 23.8082L7.6965 23.5585L3.332 24.703L4.4975 20.447L4.22333 20.0107C3.06833 18.1743 2.45933 16.0522 2.4605 13.874C2.46283 7.51567 7.637 2.34267 13.9977 2.34267C17.0777 2.34267 19.9733 3.54433 22.1503 5.72367C24.3273 7.90417 25.5255 10.801 25.5243 13.8822C25.5208 20.2428 20.3478 25.4158 13.9918 25.4158ZM20.3175 16.779C19.971 16.6052 18.2665 15.7663 17.948 15.6508C17.6307 15.5353 17.3997 15.477 17.1675 15.8235C16.9353 16.17 16.2727 16.9517 16.0697 17.1838C15.8678 17.4148 15.6648 17.444 15.3183 17.2702C14.9718 17.0963 13.8542 16.7312 12.53 15.5493C11.4998 14.63 10.8033 13.4948 10.6015 13.1472C10.3997 12.7995 10.5805 12.6128 10.7532 12.4402C10.9095 12.285 11.0997 12.0353 11.2735 11.8323C11.4485 11.6317 11.5057 11.487 11.6223 11.2548C11.7378 11.0238 11.6807 10.8208 11.5932 10.647C11.5057 10.4743 10.8127 8.7675 10.5245 8.07333C10.2433 7.39667 9.9575 7.48883 9.744 7.47833C9.54217 7.46783 9.31117 7.46667 9.079 7.46667C8.848 7.46667 8.47233 7.553 8.155 7.90067C7.83767 8.24833 6.94167 9.08717 6.94167 10.7928C6.94167 12.4997 8.18417 14.1482 8.35683 14.3792C8.5295 14.6102 10.801 18.1125 14.2788 19.614C15.106 19.971 15.7523 20.1845 16.2552 20.3443C17.0858 20.608 17.8418 20.5707 18.4392 20.482C19.1053 20.3828 20.4902 19.6432 20.7795 18.8335C21.0688 18.0238 21.0688 17.3285 20.9813 17.185C20.895 17.0392 20.664 16.9528 20.3175 16.779Z" fill="#25D366"/>
</svg>
